<svg viewBox="0 0 24 24" xmlns="http://www.w3.org/2000/svg">
<path d="M21.4267 11.0952L4.42674 3.09517C4.25556 3.01462 4.06503 2.98428 3.8773 3.00768C3.68956 3.03108 3.51232 3.10725 3.36614 3.22735C3.21996 3.34745 3.11086 3.50656 3.05149 3.68619C2.99212 3.86582 2.98492 4.05861 3.03074 4.24217L4.24274 9.09117L12.0007 12.0002L4.24274 14.9092L3.03074 19.7582C2.98406 19.9419 2.99066 20.135 3.04975 20.3151C3.10885 20.4952 3.218 20.6547 3.36444 20.7751C3.51088 20.8954 3.68855 20.9715 3.87667 20.9946C4.0648 21.0176 4.25559 20.9866 4.42674 20.9052L21.4267 12.9052C21.5985 12.8244 21.7438 12.6964 21.8455 12.5362C21.9473 12.3759 22.0013 12.19 22.0013 12.0002C22.0013 11.8103 21.9473 11.6244 21.8455 11.4642C21.7438 11.3039 21.5985 11.1759 21.4267 11.0952Z"/>
</svg>
