<svg viewBox="0 0 24 24" xmlns="http://www.w3.org/2000/svg"><path d="M16.096 18.096l-1.15-1.15A8.365 8.365 0 0 1 12 17.5c-2.763 0-5.165-1.473-6.966-3.11A18.431 18.431 0 0 1 2.84 12l.13-.167A18.43 18.43 0 0 1 5.034 9.61c.44-.4.916-.79 1.424-1.152L5.384 7.384C2.626 9.413 1 12 1 12s4.4 7 11 7c1.485 0 2.859-.354 4.096-.904z"/><path fill-rule="evenodd" clip-rule="evenodd" d="M3.06 2.94l1-1 3.928 3.927C9.203 5.339 10.548 5 12 5c6.6 0 11 7 11 7s-1.599 2.543-4.314 4.564l3.375 3.375-1 1-18-18zm15.906 11.45c-.42.381-.872.754-1.354 1.101l-1.928-1.929a4 4 0 0 0-5.246-5.246L9.142 7.022A8.333 8.333 0 0 1 12 6.5c2.763 0 5.165 1.473 6.966 3.11A18.433 18.433 0 0 1 21.16 12l-.13.167a18.433 18.433 0 0 1-2.064 2.223zM14.5 12c0 .12-.008.238-.025.354l-2.829-2.83A2.5 2.5 0 0 1 14.5 12z"/><path d="M8.354 10.354a4 4 0 0 0 5.293 5.293l-1.189-1.189a2.5 2.5 0 0 1-2.916-2.916l-1.188-1.188z"/></svg>