<svg viewBox="0 0 103 75" fill="none" xmlns="http://www.w3.org/2000/svg"><path fill="#fff" d="M29.315 12.5h55.462v46.667H29.315z"/><path d="M85.57 0H17.43C12.809 0 8.375 1.932 5.106 5.37S0 13.47 0 18.333v38.334c0 4.862 1.836 9.525 5.105 12.963C8.375 73.07 12.808 75 17.431 75h68.138c4.623 0 9.057-1.931 12.326-5.37 3.269-3.438 5.105-8.1 5.105-12.963V18.333c0-4.862-1.836-9.525-5.105-12.963C94.625 1.932 90.192 0 85.569 0zM71.671 38.233L40.772 54.9a.76.76 0 0 1-.773-.026.815.815 0 0 1-.28-.301.867.867 0 0 1-.104-.406V20.833a.867.867 0 0 1 .104-.406.815.815 0 0 1 .28-.3.763.763 0 0 1 .773-.027l30.9 16.667a.81.81 0 0 1 .315.307.866.866 0 0 1 0 .869.81.81 0 0 1-.315.307v-.017z" fill="#649E32"/></svg>
