<svg width="60" height="60" fill="none" xmlns="http://www.w3.org/2000/svg"><path d="M38.772 58.69C51.048 54.93 60 43.493 60 30c0-12.756-8.003-23.676-19.25-28.007a.93.93 0 0 0-.208-.079A29.852 29.852 0 0 0 30 0C13.458 0 0 13.458 0 30c0 13.492 8.952 24.93 21.228 28.69a.943.943 0 0 0 .146.044 29.8 29.8 0 0 0 5.634 1.117.944.944 0 0 0 .18.018h.011A30.3 30.3 0 0 0 30 60c.945 0 1.878-.046 2.8-.132h.013a.944.944 0 0 0 .179-.017 29.786 29.786 0 0 0 5.634-1.117.925.925 0 0 0 .146-.043zM1.875 30c0-.95.048-1.887.14-2.813H22.5a3.754 3.754 0 0 1 3.75 3.75v26.937a27.902 27.902 0 0 1-3.75-.766v-11.17a5.63 5.63 0 0 0-5.625-5.626h-1.994A3.756 3.756 0 0 0 11.25 37.5a3.754 3.754 0 0 0-3.75 3.75A3.754 3.754 0 0 0 11.25 45a3.756 3.756 0 0 0 3.631-2.813h1.994a3.754 3.754 0 0 1 3.75 3.75v10.58C9.713 52.646 1.875 42.221 1.875 30zm11.25 11.25c0 1.034-.84 1.875-1.875 1.875a1.877 1.877 0 0 1-1.875-1.875c0-1.034.84-1.875 1.875-1.875 1.034 0 1.875.84 1.875 1.875zm15 16.811V30.938a5.63 5.63 0 0 0-5.625-5.625H2.268C4.506 12.027 16.088 1.875 30 1.875c3.286 0 6.441.568 9.375 1.609v13.391A5.63 5.63 0 0 0 45 22.5h1.994a3.756 3.756 0 0 0 3.631 2.813 3.754 3.754 0 0 0 3.75-3.75 3.754 3.754 0 0 0-3.75-3.75 3.756 3.756 0 0 0-3.631 2.812H45a3.754 3.754 0 0 1-3.75-3.75V4.225C51.174 8.576 58.125 18.49 58.125 30c0 12.222-7.837 22.647-18.75 26.516V39.375a3.754 3.754 0 0 1 3.75-3.75h1.994a3.756 3.756 0 0 0 3.631 2.813 3.754 3.754 0 0 0 3.75-3.75 3.754 3.754 0 0 0-3.75-3.75 3.756 3.756 0 0 0-3.631 2.812h-1.994a5.63 5.63 0 0 0-5.625 5.625v17.733c-1.22.338-2.471.595-3.75.766v-.799a.938.938 0 0 0-1.875 0v.986c-.62.041-1.245.064-1.875.064-.63 0-1.255-.023-1.875-.064zM48.75 21.563a1.876 1.876 0 1 1 1.875 1.875 1.877 1.877 0 0 1-1.875-1.875zm-1.875 13.125c0-1.035.84-1.876 1.875-1.876a1.875 1.875 0 0 1 0 3.75 1.877 1.877 0 0 1-1.875-1.874z" fill="#649E32"/><path d="M31.875 20.625v37.938a.938.938 0 0 0 1.875 0V20.624A5.63 5.63 0 0 0 28.125 15h-1.994a3.756 3.756 0 0 0-3.631-2.813 3.754 3.754 0 0 0-3.75 3.75 3.754 3.754 0 0 0 3.75 3.75 3.756 3.756 0 0 0 3.631-2.812h1.994a3.754 3.754 0 0 1 3.75 3.75zM22.5 17.812a1.877 1.877 0 0 1-1.875-1.875 1.875 1.875 0 1 1 1.875 1.876z" fill="#649E32"/></svg>