<svg width="60" height="60" fill="none" xmlns="http://www.w3.org/2000/svg"><g clip-path="url(#clip0)" fill="#649E32"><path d="M32.737 11.817a.938.938 0 0 0-.862-.567h-3.75a.938.938 0 0 0-.863.567l-8.437 19.688a.938.938 0 0 0 0 .75l3.61 8.104-1.763 5.283a.937.937 0 0 0 .89 1.233h16.875a.937.937 0 0 0 .891-1.233l-1.763-5.283 3.605-8.104a.938.938 0 0 0 0-.75l-8.433-19.688zM30 28.594a2.813 2.813 0 1 1 0 5.625 2.813 2.813 0 0 1 0-5.625zM22.86 45l1.252-3.75h11.775L37.14 45H22.86zm13.093-5.625H24.047l-3.338-7.5 8.035-18.75h.318v13.688a4.687 4.687 0 1 0 1.875 0V13.124h.32l8.034 18.75-3.338 7.5z"/><path d="M58.594 26.719h-2.142A26.751 26.751 0 0 0 39.844 5.625h7.204a2.813 2.813 0 1 0 0-1.875H34.594a4.688 4.688 0 0 0-9.188 0H12.961a2.812 2.812 0 1 0 0 1.875h7.195A26.751 26.751 0 0 0 3.548 26.719H1.406a.937.937 0 0 0-.937.937v5.625a.938.938 0 0 0 .937.938h2.142A26.583 26.583 0 0 0 26.25 56.92v2.142a.937.937 0 0 0 .938.938h5.625a.938.938 0 0 0 .937-.938V56.92a26.582 26.582 0 0 0 22.702-22.7h2.142a.938.938 0 0 0 .937-.938v-5.625a.937.937 0 0 0-.937-.937zm-8.907-22.97a.937.937 0 1 1 0 1.875.937.937 0 0 1 0-1.874zM30 1.876A2.812 2.812 0 1 1 30 7.5a2.812 2.812 0 0 1 0-5.624zm-19.688 3.75a.938.938 0 1 1 0-1.875.938.938 0 0 1 0 1.875zM2.345 28.594h3.75v3.75h-3.75v-3.75zm29.531 29.53h-3.75v-3.75h3.75v3.75zm1.875-3.098v-1.589a.938.938 0 0 0-.938-.937h-5.624a.938.938 0 0 0-.938.937v1.59A24.712 24.712 0 0 1 5.442 34.218h1.59a.938.938 0 0 0 .937-.938v-5.625a.937.937 0 0 0-.938-.937H5.442A24.867 24.867 0 0 1 25.51 6.033a4.687 4.687 0 0 0 8.982 0 24.868 24.868 0 0 1 20.067 20.686h-1.59a.937.937 0 0 0-.937.937v5.625a.938.938 0 0 0 .938.938h1.589A24.708 24.708 0 0 1 33.75 55.026zm23.906-22.682h-3.75v-3.75h3.75v3.75z"/></g><defs><clipPath id="clip0"><path fill="#fff" d="M0 0h60v60H0z"/></clipPath></defs></svg>