<svg width="60" height="60" fill="none" xmlns="http://www.w3.org/2000/svg"><path d="M59.121 56.36h-1.408L44.57 36.644a2.738 2.738 0 0 0-2.345-1.227c-.6.01-1.165.213-1.625.566l-8.036-17.532a2.725 2.725 0 0 0-1.685-1.486v-6.757h7.575a.88.88 0 0 0 .732-1.367l-1.554-2.33 1.554-2.331a.879.879 0 0 0-.732-1.367H30.88v-.06a.88.88 0 0 0-1.758 0v14.25a2.722 2.722 0 0 0-1.598 1.51L24.5 25.569l-1.503-1.184a1.81 1.81 0 0 0-1.524-.345 1.81 1.81 0 0 0-1.229.964l-10.296 20.7-1.61 1.003a6.525 6.525 0 0 0-2.312 2.481L2.228 56.36H.878a.88.88 0 0 0 0 1.758h58.243a.879.879 0 1 0 0-1.758zM36.812 4.571l-.968 1.452a.879.879 0 0 0 0 .975l.968 1.452H30.88V4.572h5.933zM21.818 25.786c.004-.008.013-.026.04-.032a.054.054 0 0 1 .052.011l1.873 1.476-.27.63a.879.879 0 0 0 1.616.693l4.01-9.357a.985.985 0 0 1 .906-.606.984.984 0 0 1 .921.583l5.896 12.864-.951.952a.92.92 0 0 1-.708.271.919.919 0 0 1-.674-.345 2.666 2.666 0 0 0-2.472-.975 2.667 2.667 0 0 0-2.102 1.626l-1.46 3.494a.912.912 0 0 1-.75.566.912.912 0 0 1-.861-.38L23.442 32.5l.26-.606a.879.879 0 0 0-1.616-.693l-3.353 7.824a5.67 5.67 0 0 1-2.223 2.591l-3.715 2.314 9.023-18.143zM7.579 50.01a4.762 4.762 0 0 1 1.689-1.812l8.171-5.09a7.424 7.424 0 0 0 2.91-3.391l2.286-5.335 2.824 3.906a2.652 2.652 0 0 0 2.487 1.095 2.656 2.656 0 0 0 2.172-1.634l1.46-3.495c.184-.44.57-.54.726-.562a.915.915 0 0 1 .856.337 2.69 2.69 0 0 0 3.994.214l.49-.49 1.756 3.832-.487.792a.88.88 0 0 0 1.498.92l1.012-1.646a.984.984 0 0 1 .834-.476.987.987 0 0 1 .85.445L55.6 56.36H17.346l3.057-2.622a11.29 11.29 0 0 1 3.564-2.068l8.849-3.16a7.483 7.483 0 0 0 3.841-3.113l1.77-2.876a.879.879 0 1 0-1.497-.921l-1.77 2.876a5.717 5.717 0 0 1-2.936 2.379l-8.848 3.16a13.033 13.033 0 0 0-4.117 2.389l-4.614 3.955H4.217l3.362-6.35z" fill="#649E32"/></svg>