<svg width="60" height="60" fill="none" xmlns="http://www.w3.org/2000/svg"><g clip-path="url(#clip0)" fill="#649E32"><path d="M50.958 35.583a3.132 3.132 0 0 0-1.664-.68 4.152 4.152 0 0 0-1.406-4.176 4.43 4.43 0 0 0-2.593-1.111 4.26 4.26 0 0 0-1.303-5.288 4.627 4.627 0 0 0-3.21-.839c2.254-4.56 6.674-13.523 7.907-16.233.436-.937 1.758-3.853-.525-5.625a3.534 3.534 0 0 0-2.803-.693c-1.406.23-2.672 1.167-3.637 2.639-1.163 1.771-2.668 4.317-4.266 7.03-2.156 3.634-4.599 7.754-6.487 10.454-.263.37-1.561 2.395-2.602 4.158-.708-2.813-1.477-5.84-1.805-6.882-.412-1.307-2.686-7.795-7.143-7.434a3.231 3.231 0 0 0-2.625 1.444c-1.093 1.72-.422 4.481.332 6.492.6 1.599.82 9.14.82 13.523 0 .535-.374 3.61-.74 6.563-.323 2.625-.68 5.522-.89 7.58l-2.49-1.322a.938.938 0 0 0-1.26.356l-7.44 12.89a.938.938 0 0 0 1.622.938l6.99-12.103 23.437 12.623c.136.074.29.113.445.113a.937.937 0 0 0 .469-1.763l-.853-.468c1.476-1.28 4.12-3.67 5.456-5.532a26.447 26.447 0 0 0 2.962-5.976c.141-.117.282-.234.413-.361 1.598-1.547 4.687-4.95 5.512-6.23a3.01 3.01 0 0 0-.623-4.087zm-6.122-4.097a2.41 2.41 0 0 1 1.838.66 2.289 2.289 0 0 1 .342 3.235 340 340 0 0 1-3.385 3.75c-.07.07-.136.146-.206.22-.965 1.037-1.8 1.932-2.245 2.466-1.683 1.875-3.216 3.535-3.966 4.378a1.829 1.829 0 0 1-1.275.68 1.579 1.579 0 0 1-1.176-.469c-.277-.267-.853-.825.253-2.4.187-.272.576-.81 1.092-1.523l.038-.042a731.907 731.907 0 0 0 3.928-5.391l2.175-2.967 1.312-1.795a1.823 1.823 0 0 1 1.275-.802zm-1.94-5.625a2.456 2.456 0 0 1 .501 3.351c-.506.713-2.714 3.779-4.842 6.718-1.406 1.945-2.925 3.993-3.947 5.404-.783 1.032-1.65 1.252-2.578.657-.347-.22-1.266-.807-.131-2.775.173-.291.525-.91.989-1.72 1.87-3.277 5.353-9.343 6.487-11.246a2.015 2.015 0 0 1 1.355-.886 2.812 2.812 0 0 1 2.166.483v.014zm-1.772 25.312c-1.407 1.936-4.505 4.655-5.705 5.668l-17.316-9.352c.178-2.02.6-5.348.966-8.32.469-3.82.755-6.197.755-6.811 0-1.195 0-11.742-.938-14.184-.834-2.213-1.022-4.018-.51-4.824a1.405 1.405 0 0 1 1.194-.586c2.494-.206 4.458 3.75 5.208 6.131.643 2.044 3.155 12.408 3.178 12.511a.938.938 0 1 0 1.824-.44c-.033-.146-.342-1.407-.76-3.108.858-1.65 3.146-5.245 3.483-5.728 1.931-2.756 4.29-6.731 6.563-10.57 1.584-2.677 3.084-5.199 4.218-6.938a3.84 3.84 0 0 1 2.386-1.81 1.669 1.669 0 0 1 1.322.31c.361.281 1.111.862-.032 3.366-1.632 3.567-8.879 18.187-9.207 18.848-1.19 1.936-4.626 7.945-6.492 11.227l-.984 1.715c-1.29 2.236-1.018 4.163.74 5.292a3.787 3.787 0 0 0 1.763.61 3.075 3.075 0 0 0 .675 3.548 3.464 3.464 0 0 0 2.428 1.022h.122a3.685 3.685 0 0 0 2.61-1.289c.395-.469 1.013-1.13 1.759-1.95.18.425.455.805.801 1.11a2.667 2.667 0 0 0 1.833.723h.216a21.095 21.095 0 0 1-2.1 3.81v.02zm8.873-12.487c-.666 1.036-3.59 4.294-5.231 5.845-.061.061-1.49 1.407-2.344.666-.82-.74-.164-1.748.174-2.166l.53-.548L45 40.402c.938-1.018 1.983-2.129 2.71-2.982a1.684 1.684 0 0 1 1.256-.665c.298.003.586.11.815.3a1.191 1.191 0 0 1 .216 1.612v.019z"/><path d="M28.528 8.494a.937.937 0 0 0 .938-.938V.937a.938.938 0 0 0-1.875 0v6.62a.937.937 0 0 0 .937.937zm3.741 1.758a.937.937 0 0 0 .689-.305l4.57-5.002a.945.945 0 1 0-1.406-1.265l-4.547 5.006a.938.938 0 0 0 .061 1.322.938.938 0 0 0 .633.244zm-8.175-.305a.936.936 0 0 0 1.383-1.261l-4.57-5.006A.946.946 0 0 0 19.5 4.945l4.594 5.002z"/></g><defs><clipPath id="clip0"><path fill="#fff" d="M0 0h60v60H0z"/></clipPath></defs></svg>