<svg viewBox="0 0 530 136" fill="none" xmlns="http://www.w3.org/2000/svg"><path d="M195.125 39C178.68 39 165 52.243 165 68.543c0 16.3 13.68 29.397 30.125 29.397 8.877 0 15.426-2.91 20.665-8.295 5.385-5.385 6.986-12.807 6.986-18.774 0-1.892-.146-3.638-.437-5.093h-27.214v8.004h19.355c-.582 4.511-2.037 7.858-4.366 10.187-2.765 2.765-7.276 5.967-14.989 5.967-11.934 0-21.248-9.605-21.248-21.393s9.314-21.393 21.248-21.393c6.403 0 11.206 2.474 14.553 5.82l5.676-5.675C210.551 42.638 204.148 39 195.125 39zm49.335 21.102c-10.333 0-18.919 8.004-18.919 19.21 0 11.06 8.44 19.21 18.919 19.21 10.478 0 18.919-8.15 18.919-19.21s-8.587-19.21-18.919-19.21zm0 30.852c-5.676 0-10.624-4.802-10.624-11.642s4.948-11.642 10.624-11.642c5.675 0 10.623 4.656 10.623 11.642 0 6.84-4.948 11.642-10.623 11.642zm41.039-30.852c-10.478 0-18.919 8.004-18.919 19.21 0 11.06 8.441 19.21 18.919 19.21 10.333 0 18.919-8.15 18.919-19.21s-8.441-19.21-18.919-19.21zm0 30.852c-5.676 0-10.624-4.802-10.624-11.642s4.948-11.642 10.624-11.642 10.624 4.656 10.624 11.642c0 6.84-4.803 11.642-10.624 11.642zm40.894-30.852c-9.459 0-18.046 8.295-18.046 19.064 0 10.624 8.587 18.92 18.046 18.92 4.512 0 8.004-2.038 9.896-4.367h.291v2.766c0 7.276-3.783 11.205-10.041 11.205-5.094 0-8.15-3.638-9.46-6.694l-7.276 3.056c2.037 5.094 7.567 11.206 16.736 11.206 9.75 0 17.9-5.821 17.9-19.792V61.412h-7.859v3.056h-.291c-1.892-2.329-5.384-4.366-9.896-4.366zm.728 30.561c-5.676 0-10.478-4.802-10.478-11.497 0-6.694 4.802-11.642 10.478-11.642s10.041 4.948 10.041 11.642c0 6.695-4.365 11.497-10.041 11.497zm23.43-49.334h8.295v56.174h-8.295V41.328zm30.562 18.773c-9.896 0-18.192 7.713-18.192 19.21 0 10.77 8.15 19.21 19.065 19.21 8.877 0 13.971-5.385 16.008-8.44l-6.549-4.367c-2.183 3.202-5.239 5.24-9.459 5.24-4.366 0-7.422-1.892-9.314-5.822l25.759-10.624-.873-2.183c-1.601-4.22-6.549-12.224-16.445-12.224zm-9.896 18.628c-.292-7.422 5.821-11.206 10.041-11.206 3.347 0 6.258 1.6 7.131 4.075l-17.172 7.13zm41.767 17.9l19.21-51.081h7.422l19.21 51.081h-7.277l-4.948-13.825h-21.393L420.26 96.63h-7.276zm14.407-19.938h17.027L436.123 53.7h-.291l-8.441 22.993zM465.52 92.41c-3.202-3.638-4.802-8.004-4.802-13.243 0-5.094 1.6-9.46 4.802-13.244 3.347-3.638 7.131-5.384 11.788-5.384 2.62 0 4.948.582 6.985 1.6 2.183 1.165 3.784 2.474 4.948 4.366h.292l-.292-4.802V45.549h6.549V96.63h-6.257v-4.802h-.292c-1.164 1.746-2.765 3.201-4.948 4.365-2.183 1.165-4.511 1.601-6.985 1.601-4.657 0-8.586-1.746-11.788-5.384zm20.665-4.075c2.183-2.329 3.202-5.385 3.202-9.168 0-3.639-1.019-6.695-3.202-9.023-2.037-2.329-4.657-3.493-7.858-3.493-3.202 0-5.822 1.164-7.859 3.493-2.183 2.328-3.202 5.384-3.202 9.022 0 3.639 1.019 6.695 3.202 9.023 2.183 2.329 4.803 3.493 7.859 3.493 3.201.146 5.821-1.019 7.858-3.347zm39.876 6.258c-2.62 2.037-5.967 3.201-10.042 3.201-3.493 0-6.549-.873-9.314-2.765-2.619-1.892-4.511-4.22-5.675-7.276l5.821-2.474c.873 2.037 2.037 3.784 3.784 4.948a9.141 9.141 0 0 0 5.384 1.746c2.038 0 3.784-.436 5.239-1.31 1.456-.873 2.038-2.037 2.038-3.201 0-2.183-1.747-3.93-5.094-4.948l-5.967-1.456c-6.84-1.746-10.187-4.948-10.187-9.896 0-3.201 1.31-5.675 3.93-7.713 2.619-1.892 5.966-2.91 9.896-2.91 3.056 0 5.821.727 8.44 2.182 2.474 1.456 4.221 3.493 5.239 5.967l-5.821 2.474c-.727-1.455-1.746-2.62-3.201-3.492-1.456-.874-3.202-1.31-5.094-1.31-1.746 0-3.202.436-4.657 1.31-1.31.873-2.037 1.891-2.037 3.201 0 2.038 1.892 3.493 5.675 4.22l5.239 1.31c6.986 1.747 10.333 5.24 10.333 10.478.146 3.057-1.31 5.676-3.929 7.714z" fill="#757575"/><path d="M51.556 17.126c1.427-3.777 3.39-7.254 6.305-10.072 11.66-11.45 30.934-8.573 38.845 5.816 5.949 10.91 12.255 21.582 18.382 32.373C125.32 63.17 135.67 81.094 145.783 99.08c8.507 15.047-.714 34.052-17.608 36.63-10.351 1.559-20.047-3.238-25.401-12.59-8.983-15.767-18.025-31.534-27.007-47.242-.179-.36-.417-.659-.654-.959-.952-.78-1.369-1.918-1.964-2.937-3.985-7.075-8.09-14.089-12.075-21.103-2.558-4.556-5.235-9.053-7.793-13.61-2.32-4.076-3.391-8.512-3.272-13.188.178-2.398.476-4.796 1.547-6.955z" fill="#3C8BD9"/><path d="M50.974 18c-.544 2.125-1.026 4.25-1.147 6.493-.181 4.959 1.086 9.563 3.622 13.872a6187.873 6187.873 0 0 1 19.86 33.588c.604 1.004 1.087 2.007 1.691 2.952a2902.452 2902.452 0 0 1-10.927 18.358c-5.07 8.559-10.141 17.178-15.272 25.737-.242 0-.302-.118-.363-.295-.06-.472.121-.886.242-1.358 2.475-8.854.422-16.705-5.795-23.435-3.804-4.073-8.633-6.375-14.187-7.142-7.244-1.004-13.643.826-19.378 5.253-1.026.768-1.69 1.89-2.897 2.48-.242 0-.363-.118-.423-.296 2.898-4.899 5.735-9.798 8.633-14.698C26.584 59.203 38.538 38.897 50.55 18.65c.12-.236.302-.413.423-.649z" fill="#FABC04"/><path d="M6.275 94.398c1.147-1.026 2.233-2.113 3.44-3.08 14.665-11.59 36.693-3.199 39.891 15.154.785 4.408.363 8.634-.965 12.86a6.32 6.32 0 0 1-.241 1.026c-.544.966-1.026 1.993-1.63 2.959-5.371 8.874-13.277 13.282-23.657 12.618-11.89-.846-21.243-9.781-22.873-21.614-.784-5.735.362-11.109 3.32-16.06.603-1.086 1.327-2.052 1.99-3.139.303-.241.182-.724.725-.724z" fill="#34A852"/></svg>