<svg viewBox="0 0 106 82" fill="none" xmlns="http://www.w3.org/2000/svg"><path d="M13.045 70.38c-1.904-1.473-3.938-1.907-6.234-1.907-3.094 0-5.629 1.212-5.629 3.834 0 2.316 1.515 3.31 4.05 3.612l4.111.478c.758.064.867.282.867.692 0 .8-1.299 1.17-2.944 1.17-1.84 0-3.485-.585-5.108-1.732L.664 78.996c1.97 1.492 3.83 2.033 6.32 2.033 3.595 0 6.323-1.233 6.323-3.983 0-2.317-1.625-3.377-4.266-3.702l-3.486-.39c-.714-.086-1.233-.172-1.233-.67 0-.519.455-.974 2.489-.974 1.861 0 3.313.389 4.698 1.406l1.536-2.337zm10.304-1.625v2.858h4.655v9.114h3.204v-9.115h4.655v-2.857H23.349zm19.03 2.837h.496l1.82 4.61h-4.223l1.907-4.61zm-2.037-2.837l-5.194 11.972h3.42l.737-1.754h6.623l.758 1.754h3.376l-5.087-11.972h-4.633zm11.322 0v11.972h3.183v-2.555h3.722l1.365 2.555h3.463l-1.818-3.27c1.342-.8 2.163-2.163 2.163-3.94 0-2.835-2.12-4.762-5-4.762h-7.078zm3.183 2.9h3.765c1.126 0 1.927.715 1.927 1.862 0 1.17-.8 1.754-1.927 1.754h-3.765v-3.615zm17.361 1.971v2.642l2.942.106v.974c-.908.564-1.752.78-3.247.78-2.186 0-3.528-1.212-3.528-3.376 0-2.123 1.385-3.378 3.528-3.378 1.907 0 2.708.478 3.638 1.71l2.533-1.428c-1.406-2.164-3.313-3.183-6.148-3.183-3.767 0-6.712 2.425-6.712 6.28 0 3.874 2.988 6.276 6.712 6.276 1.622 0 2.792-.368 3.941-1.06l.389.758h1.97v-7.101H72.21zm8.205-4.871v11.972H91.71v-2.944h-8.118v-1.688h7.035v-2.88h-7.035v-1.58h7.836v-2.88H80.413zm12.836 0v2.858h4.653v9.114h3.203v-9.115h4.655v-2.857H93.25zm-78.234 4.482v2.792h6.819v-2.792h-6.819z" fill="#282828"/><path fill-rule="evenodd" clip-rule="evenodd" d="M36.038 60.561l32.337-17.306-4.874-9.107-32.337 17.306 4.874 9.107z" fill="#50822E"/><path fill-rule="evenodd" clip-rule="evenodd" d="M41.466 42.782l20.72-11.09-4.873-9.109L36.59 33.676l4.876 9.106z" fill="#649E32"/><path fill-rule="evenodd" clip-rule="evenodd" d="M80.758 1.019L68.868.635 56.978.253l3.175 5.937-29.751 15.92 4.876 9.11 29.748-15.923 3.178 5.933 6.277-10.105L80.76 1.019z" fill="#76B834"/><path fill-rule="evenodd" clip-rule="evenodd" d="M62.187 31.692l1.314 2.456-9.715 5.2-1.314-2.456 9.715-5.2z" fill="#39642A"/><path fill-rule="evenodd" clip-rule="evenodd" d="M44.992 26.018l1.315 2.456-9.717 5.201-1.312-2.455 9.714-5.202z" fill="#487B2E"/></svg>