<svg width="138" height="150" viewBox="0 0 138 150" fill="none" xmlns="http://www.w3.org/2000/svg"><g clip-path="url(#clip0)"><path d="M3 111.5V3h132.5l-2 108.5-65 36-65.5-36z" fill="#fff"/><path d="M34.077 78.375l-4.98 11.191h-3.635l5.477-11.964c-2.589-1.32-4.282-3.689-4.282-8.05 0-6.132 3.86-9.198 8.49-9.198h4.706v29.212h-3.162V78.375h-2.614zM36.69 63.02h-1.668c-2.54 0-4.98 1.67-4.98 6.53 0 4.711 2.241 6.207 4.98 6.207h1.668V63.02z" fill="red"/><path d="M54.992 68.98v20.586h-3.138v-9.221h-4.73v9.246h-3.212V68.98h3.187v8.749h4.73V68.98h3.163zM71.35 93.63h-2.863v-4.04h-8.814v4.038h-2.864v-6.655h1.27c1.867-4.362 2.091-10.742 2.091-16.225v-1.77h9.562v17.97h1.643v6.68h-.025zm-4.78-22.084h-3.561v.374c0 4.337-.199 10.668-1.917 15.03h5.478V71.545zm13.57 18.32c-4.258 0-6.848-3.39-6.848-9.721 0-6.63 1.843-11.44 6.2-11.44 3.436 0 5.677 2.567 5.677 9.57v1.77h-8.566c0 4.662 1.295 7.104 3.835 7.104 1.793 0 3.237-.823 4.034-1.396l.747 2.443c-1.345 1.022-3.038 1.67-5.08 1.67zm-3.512-12.463h5.28c0-3.514-.573-6.08-2.416-6.08-1.967-.026-2.664 2.392-2.864 6.08zm14.965 1.92V89.59h-3.187V68.98h3.187v9.52l4.93-9.52h3.237l-5.105 9.694 5.827 10.917h-3.461l-5.428-10.268zm9.312-.05c0-6.456 2.49-10.593 7.32-10.593 1.843 0 2.889.498 3.785 1.072l-.449 3.016c-.846-.748-2.091-1.42-3.386-1.42-2.29 0-3.909 2.566-3.909 7.775 0 5.16 1.22 8.1 3.785 8.1 1.543 0 2.739-.622 3.461-1.27l.747 2.367c-1.096.948-2.415 1.546-4.283 1.546-4.407 0-7.071-3.565-7.071-10.593z" fill="#000"/><path d="M55.391 110.993h-6.623l-.2 2.268h-.647v-2.916h.573c.299-.199.523-.524.722-.947.174-.424.324-.972.423-1.645.1-.673.175-1.471.224-2.393.05-.922.075-1.969.1-3.166h5.204v8.151h1.07v2.916h-.647l-.199-2.268zm-1.07-8.151h-3.66a84.184 84.184 0 0 1-.1 2.942 32.85 32.85 0 0 1-.2 2.168c-.1.598-.199 1.097-.373 1.496-.15.398-.349.698-.573.897h4.905v-7.503zm3.36 1.821h.772v5.309l3.859-5.309h.723v6.406h-.773v-5.359l-3.884 5.359h-.697v-6.406zm10.333 6.504c-.498 0-.946-.124-1.345-.348a2.485 2.485 0 0 1-.92-.973v3.565h-.772v-8.749h.672l.074 1.246a2.82 2.82 0 0 1 .921-1.022c.399-.249.847-.373 1.395-.373.373 0 .747.074 1.095.199.35.149.648.349.922.623.273.275.473.623.622 1.047a4.3 4.3 0 0 1 .224 1.446c0 .548-.074 1.022-.224 1.445a3.064 3.064 0 0 1-.622 1.047c-.274.274-.573.499-.922.623-.348.125-.746.224-1.12.224zm-.1-.573c.324 0 .598-.05.872-.174.274-.1.498-.274.697-.499.2-.224.348-.523.448-.872.1-.349.175-.748.175-1.221 0-.449-.05-.848-.174-1.197-.1-.349-.275-.623-.449-.872a2.055 2.055 0 0 0-.697-.524 2.107 2.107 0 0 0-.872-.174c-.298 0-.597.05-.871.174-.274.1-.523.274-.722.499a2.678 2.678 0 0 0-.498.872c-.124.349-.174.748-.174 1.222 0 .473.05.872.174 1.221.124.349.274.623.498.847.199.225.448.399.722.499.249.149.548.199.871.199zm9.338-.025a3.166 3.166 0 0 1-.872.448c-.348.125-.796.175-1.294.175-.971 0-1.718-.299-2.24-.872-.524-.574-.798-1.396-.798-2.468 0-.524.075-.972.224-1.396.15-.399.349-.772.623-1.047.273-.299.573-.498.92-.648a2.856 2.856 0 0 1 1.146-.224c.424 0 .797.075 1.12.224.324.15.623.349.847.648.225.275.374.623.473 1.047.1.424.1.922 0 1.471h-4.556c.025.872.224 1.52.598 1.969.373.448.945.673 1.692.673.399 0 .748-.05 1.046-.15.324-.099.598-.224.872-.399l.2.549zm-2.316-5.459c-.523 0-.97.2-1.369.574-.399.373-.622.922-.697 1.669h3.785c.024-.373.025-.698-.075-.996a1.83 1.83 0 0 0-.349-.698 1.323 1.323 0 0 0-.573-.399c-.224-.125-.473-.15-.722-.15zm4.78-.448v6.405h-.772v-6.405h.772zm3.113 6.38l-2.864-3.389 2.814-3.016h.847l-2.79 2.916 2.939 3.464h-.947v.025zm4.531-5.806v5.833h-.796v-5.833h-2.091v-.573h5.054v.573h-2.166z" fill="#404040"/><path d="M136.223 5.551a3.77 3.77 0 0 0-3.769-3.773H5.546a3.771 3.771 0 0 0-3.77 3.773v102.161c0 1.356.728 2.608 1.905 3.279l63.454 36.164a3.766 3.766 0 0 0 3.73 0l63.454-36.164a3.774 3.774 0 0 0 1.904-3.279V5.552z" stroke="#649E32" stroke-width="6"/><path d="M51.236 17.316v35.912h7.474v-12.6h1.89v12.6h7.473v-12.6h2.046v3.15h7.474v-3.15h9.44V17.316H51.236z" fill="#FECE01"/><path d="M89.55 50.709h-7.474l-2.518-10.081h7.474l2.518 10.08z" fill="#F4B902"/><path d="M79.473 25.197H58.647v1.345h20.826v-1.345zm0 4.035H58.647v1.345h20.826v-1.345zm-8.062 4.036H58.647v1.345H71.41v-1.345z" fill="#160F0F"/></g><defs><clipPath id="clip0"><path fill="#fff" d="M0 0h138v150H0z"/></clipPath></defs></svg>