<svg viewBox="0 0 78 85" fill="none" xmlns="http://www.w3.org/2000/svg"><g clip-path="url(#clip0)"><path d="M76.995 3.146a2.133 2.133 0 00-2.13-2.138H3.135a2.134 2.134 0 00-2.131 2.138v57.891c0 .768.41 1.478 1.076 1.858l35.865 20.493a2.123 2.123 0 002.109 0l35.865-20.493a2.139 2.139 0 001.076-1.858V3.146z" stroke="#649E32" stroke-width="6"/><path d="M19.26 44.413l-2.815 6.341h-2.054l3.096-6.78c-1.464-.748-2.42-2.09-2.42-4.561 0-3.474 2.18-5.212 4.798-5.212h2.66v16.553h-1.787v-6.341H19.26zm1.478-8.7h-.943c-1.436 0-2.815.946-2.815 3.7 0 2.67 1.267 3.517 2.815 3.517h.943v-7.218z" fill="red"/><path d="M31.083 39.087v11.667H29.31v-5.226h-2.674v5.24H24.82v-11.68h1.802v4.957h2.674v-4.958h1.787zm9.246 13.969h-1.618v-2.288h-4.982v2.288H32.11v-3.771h.718c1.055-2.472 1.182-6.087 1.182-9.195v-1.003h5.404v10.184h.929v3.785h-.014zm-2.702-12.514h-2.013v.212c0 2.458-.112 6.045-1.083 8.517h3.096v-8.729zm7.67 10.381c-2.407 0-3.87-1.92-3.87-5.508 0-3.757 1.041-6.483 3.504-6.483 1.942 0 3.209 1.455 3.209 5.424v1.002h-4.842c0 2.642.732 4.026 2.168 4.026 1.013 0 1.83-.466 2.28-.791l.422 1.384c-.76.579-1.717.946-2.871.946zm-1.985-7.062h2.984c0-1.991-.324-3.446-1.365-3.446-1.112-.014-1.506 1.356-1.619 3.446zm8.459 1.088v5.819h-1.802v-11.68h1.801v5.395l2.787-5.396h1.83l-2.885 5.495 3.293 6.186h-1.956l-3.069-5.82zm5.263-.028c0-3.659 1.407-6.003 4.137-6.003 1.042 0 1.633.282 2.14.607l-.254 1.71c-.478-.425-1.182-.806-1.914-.806-1.294 0-2.21 1.455-2.21 4.407 0 2.923.69 4.59 2.14 4.59a2.93 2.93 0 001.956-.72l.422 1.342c-.619.536-1.365.875-2.42.875-2.491 0-3.997-2.02-3.997-6.002z" fill="#000"/><path d="M25.908 58.57l-.268 4.435h-.408l.31-5h.605l1.478 3.799 1.506-3.8h.605l.31 5h-.465l-.267-4.42-1.478 3.7-.24.015h-.21l-1.478-3.73zm8.008 4.166a1.795 1.795 0 01-.493.255c-.197.07-.45.098-.732.098-.548 0-.97-.17-1.266-.494-.296-.325-.45-.791-.45-1.398 0-.297.042-.551.126-.791a1.66 1.66 0 01.352-.593 1.47 1.47 0 01.52-.368c.198-.084.409-.127.648-.127.24 0 .45.043.633.127.183.085.352.198.479.368.127.155.211.353.267.593.057.24.057.522 0 .833h-2.575c.014.494.127.861.338 1.116.21.254.534.381.957.381a1.95 1.95 0 001.083-.31l.113.31zm-1.323-3.093c-.296 0-.549.113-.774.325-.225.212-.352.523-.394.946h2.14c.013-.212.013-.395-.043-.565a1.042 1.042 0 00-.197-.395.75.75 0 00-.324-.226c-.112-.07-.253-.085-.408-.085zm3.489.071v3.306h-.45v-3.306h-1.197v-.324h2.857v.324h-1.21zm3.672 3.362a1.52 1.52 0 01-.76-.198 1.403 1.403 0 01-.52-.55v2.019h-.437v-4.958h.38l.042.707c.127-.24.31-.438.521-.58a1.43 1.43 0 01.788-.211c.211 0 .422.042.62.113.196.084.365.197.52.353.155.155.267.353.352.593.084.24.126.508.126.82 0 .31-.042.578-.126.818-.084.24-.211.438-.352.593a1.427 1.427 0 01-.52.354c-.198.07-.409.127-.634.127zm-.056-.325c.183 0 .338-.029.492-.1a.97.97 0 00.394-.282c.113-.127.197-.296.254-.494.056-.198.098-.424.098-.692 0-.254-.028-.48-.098-.678a1.627 1.627 0 00-.254-.494 1.16 1.16 0 00-.394-.297 1.186 1.186 0 00-.492-.099c-.17 0-.338.028-.493.1a1.017 1.017 0 00-.408.281c-.112.128-.21.297-.281.495a2.06 2.06 0 00-.099.692c0 .268.028.494.099.692.07.198.154.353.281.48.113.127.253.226.408.283.155.084.31.113.493.113zm2.575-3.361h.437v3.008l2.195-3.008h.408v3.63h-.436v-3.037L42.68 63.02h-.393v-3.63h-.015zm4.562 0v3.63h-.437v-3.63h.437zm1.759 3.615l-1.618-1.92 1.59-1.695h.478l-1.576 1.652 1.66 1.963h-.534zm3.39 0a2.714 2.714 0 01-.084-.607c-.042.084-.098.155-.155.24a.814.814 0 01-.225.212.982.982 0 01-.324.155 1.363 1.363 0 01-.436.056c-.169 0-.323-.028-.464-.07a1.215 1.215 0 01-.38-.198 1.169 1.169 0 01-.253-.325 1.055 1.055 0 01-.085-.438c0-.38.155-.663.45-.847.296-.184.746-.282 1.323-.282h.535v-.368c0-.31-.07-.537-.211-.692-.14-.14-.38-.226-.704-.226-.239 0-.436.043-.619.113s-.338.17-.465.283l-.14-.353c.112-.085.281-.156.506-.24.226-.085.48-.113.76-.113.423 0 .746.099.971.282.226.184.338.494.338.89v1.878a2.862 2.862 0 00.056.622h-.394v.028zm-1.154-.254c.156 0 .282-.029.409-.07a.798.798 0 00.295-.185c.084-.07.155-.155.211-.24.057-.084.099-.17.141-.254v-.805h-.507c-.478 0-.83.057-1.041.184-.211.127-.324.339-.324.635 0 .24.07.424.225.551.155.127.352.184.592.184z" fill="#404040"/><path d="M51.008 8.911h-7.094v20.984h7.094V8.911z" fill="#FC0"/><path d="M43.541 15.656h-6.72v14.24h6.72v-14.24z" fill="#07F"/><path d="M36.448 22.775h-7.095v7.12h7.095v-7.12z" fill="#F33"/></g><defs><clipPath id="clip0"><path fill="#fff" d="M0 0h78v85H0z"/></clipPath></defs></svg>