<svg width="138" height="150" viewBox="0 0 138 150" fill="none" xmlns="http://www.w3.org/2000/svg"><g clip-path="url(#clip0)"><path d="M3 111.5V3h132.5l-2 108.5-65 36-65.5-36z" fill="#fff"/><path d="M41.1 89.22c-2.978 0-5.47 2.407-5.47 5.389 0 2.98 2.492 5.36 5.47 5.36 1.603 0 2.806-.517 3.75-1.52.974-.974 1.26-2.322 1.26-3.41 0-.345-.028-.66-.085-.918H41.1v1.462h3.521c-.114.831-.372 1.433-.801 1.863-.516.516-1.317 1.09-2.72 1.09-2.177 0-3.866-1.75-3.866-3.9 0-2.149 1.69-3.897 3.866-3.897 1.173 0 2.032.459 2.634 1.06l1.03-1.031c-.83-.889-2.004-1.548-3.664-1.548zm8.99 3.84c-1.89 0-3.435 1.462-3.435 3.497 0 2.007 1.546 3.498 3.436 3.498s3.436-1.49 3.436-3.498c0-2.006-1.547-3.497-3.436-3.497zm0 5.619c-1.03 0-1.947-.89-1.947-2.122 0-1.232.888-2.12 1.948-2.12 1.03 0 1.947.86 1.947 2.12 0 1.262-.916 2.122-1.947 2.122zm7.474-5.619c-1.918 0-3.436 1.462-3.436 3.497 0 2.007 1.546 3.498 3.436 3.498S61 98.565 61 96.557c0-2.006-1.546-3.497-3.436-3.497zm0 5.619c-1.03 0-1.947-.89-1.947-2.122 0-1.232.888-2.12 1.947-2.12 1.031 0 1.947.86 1.947 2.12-.028 1.262-.887 2.122-1.947 2.122zm7.445-5.619c-1.718 0-3.293 1.52-3.293 3.469 0 1.95 1.575 3.44 3.293 3.44.83 0 1.46-.373 1.804-.803h.057v.516c0 1.318-.687 2.035-1.832 2.035-.916 0-1.49-.659-1.718-1.232l-1.318.544c.373.918 1.375 2.035 3.036 2.035 1.775 0 3.264-1.06 3.264-3.612V93.29H66.87v.545h-.057c-.344-.402-1.002-.775-1.804-.775zm.115 5.561c-1.031 0-1.919-.888-1.919-2.092 0-1.233.888-2.12 1.919-2.12 1.03 0 1.832.887 1.832 2.12 0 1.232-.802 2.092-1.832 2.092zm4.266-8.971h1.518v10.233H69.39V89.65zm5.584 3.41c-1.804 0-3.322 1.405-3.322 3.497 0 1.95 1.49 3.498 3.465 3.498a3.463 3.463 0 0 0 2.92-1.548l-1.202-.803c-.4.573-.945.946-1.718.946-.802 0-1.346-.344-1.69-1.06l4.697-1.95-.172-.4c-.286-.718-1.203-2.18-2.978-2.18zm-1.804 3.383a1.914 1.914 0 0 1 1.832-2.035c.602 0 1.146.286 1.289.745l-3.121 1.29zm7.587 3.267l3.493-9.316h1.346l3.493 9.316h-1.317l-.888-2.522H82.99l-.888 2.522h-1.345zm2.633-3.64h3.093l-1.518-4.185h-.057L83.39 96.07zm6.933 2.866a3.566 3.566 0 0 1-.888-2.407c0-.917.287-1.72.888-2.408.6-.66 1.288-.974 2.147-.974.487 0 .888.114 1.26.286.4.2.687.46.888.803h.057l-.057-.889v-2.923h1.202v9.315h-1.145v-.889h-.057c-.201.316-.515.574-.888.803-.401.201-.83.287-1.26.287-.859 0-1.575-.344-2.147-1.004zm3.75-.745c.402-.43.573-.974.573-1.662 0-.66-.171-1.233-.573-1.634-.371-.43-.858-.63-1.431-.63-.573 0-1.06.2-1.432.63-.4.43-.572.975-.572 1.634 0 .66.171 1.232.572 1.634.401.43.888.63 1.432.63.601.057 1.06-.171 1.431-.602zm7.273 1.147c-.487.373-1.088.573-1.833.573-.63 0-1.202-.172-1.69-.516a2.739 2.739 0 0 1-1.03-1.318l1.06-.459c.172.373.372.688.687.889.286.2.63.315.973.315.372 0 .688-.086.945-.23.258-.171.373-.372.373-.573 0-.401-.315-.716-.916-.888l-1.089-.258c-1.23-.315-1.861-.888-1.861-1.806 0-.573.23-1.032.716-1.404.487-.345 1.088-.516 1.804-.516a3.28 3.28 0 0 1 1.546.4c.458.259.773.632.945 1.09l-1.059.459c-.144-.258-.315-.487-.573-.63-.258-.173-.573-.23-.916-.23-.315 0-.573.086-.86.23-.228.171-.372.343-.372.572 0 .373.344.631 1.03.775l.946.229c1.26.315 1.89.946 1.89 1.92.029.545-.258 1.004-.716 1.376z" fill="#757575"/><path d="M74.2 21.344c5.126 2.952 6.873 9.516 3.924 14.647L55.617 75.03c-2.95 5.13-9.506 6.88-14.632 3.927-5.126-2.981-6.872-9.517-3.923-14.648L59.57 25.27c2.978-5.13 9.506-6.879 14.632-3.926z" fill="#FFBF04"/><path d="M46.34 80.42c5.914 0 10.709-4.8 10.709-10.72 0-5.92-4.795-10.72-10.71-10.72-5.914 0-10.709 4.8-10.709 10.72 0 5.92 4.795 10.72 10.71 10.72z" fill="#34A853"/><path d="M63.49 21.344c-5.126 2.952-6.872 9.516-3.923 14.647l22.506 39.04c2.95 5.13 9.507 6.88 14.633 3.927 5.125-2.952 6.872-9.517 3.922-14.648L78.122 25.27c-2.95-5.13-9.507-6.879-14.632-3.926z" fill="#0086F9"/><path d="M136.223 5.551a3.77 3.77 0 0 0-3.769-3.773H5.546a3.771 3.771 0 0 0-3.77 3.773v102.161c0 1.356.728 2.608 1.905 3.279l63.454 36.164a3.766 3.766 0 0 0 3.73 0l63.454-36.164a3.774 3.774 0 0 0 1.904-3.279V5.552z" stroke="url(#paint0_linear)" stroke-width="6"/><path d="M136.223 5.551a3.77 3.77 0 0 0-3.769-3.773H5.546a3.771 3.771 0 0 0-3.77 3.773v102.161c0 1.356.728 2.608 1.905 3.279l63.454 36.164a3.766 3.766 0 0 0 3.73 0l63.454-36.164a3.774 3.774 0 0 0 1.904-3.279V5.552z" stroke="#649E32" stroke-width="6"/></g><defs><linearGradient id="paint0_linear" x1="69" y1="1.778" x2="69" y2="148.218" gradientUnits="userSpaceOnUse"><stop stop-color="#E2C136"/><stop offset=".51" stop-color="#FFF192"/><stop offset="1" stop-color="#CEA706"/></linearGradient><clipPath id="clip0"><path fill="#fff" d="M0 0h138v150H0z"/></clipPath></defs></svg>