<svg viewBox="0 0 78 85" fill="none" xmlns="http://www.w3.org/2000/svg"><g clip-path="url(#clip0)"><path d="M23.23 50.558c-1.683 0-3.091 1.364-3.091 3.053 0 1.69 1.408 3.038 3.09 3.038.907 0 1.587-.293 2.121-.861.55-.552.712-1.316.712-1.933 0-.195-.016-.374-.048-.52H23.23v.829h1.99c-.064.47-.21.812-.453 1.055-.29.292-.744.617-1.537.617-1.23 0-2.185-.99-2.185-2.209 0-1.218.955-2.209 2.185-2.209.663 0 1.149.26 1.489.601l.583-.584c-.47-.504-1.133-.877-2.072-.877zm5.082 2.176c-1.068 0-1.942.828-1.942 1.982 0 1.137.874 1.981 1.942 1.981s1.942-.844 1.942-1.981-.874-1.982-1.942-1.982zm0 3.184c-.583 0-1.1-.504-1.1-1.202 0-.699.501-1.202 1.1-1.202.582 0 1.1.487 1.1 1.202s-.517 1.202-1.1 1.202zm4.224-3.184c-1.084 0-1.942.828-1.942 1.982 0 1.137.874 1.981 1.942 1.981s1.942-.844 1.942-1.981-.874-1.982-1.942-1.982zm0 3.184c-.583 0-1.1-.504-1.1-1.202 0-.699.501-1.202 1.1-1.202.583 0 1.1.487 1.1 1.202-.016.715-.501 1.202-1.1 1.202zm4.208-3.184c-.971 0-1.861.861-1.861 1.965 0 1.105.89 1.95 1.861 1.95.47 0 .825-.212 1.02-.455h.032v.292c0 .747-.388 1.154-1.036 1.154-.518 0-.841-.374-.97-.699l-.745.308c.21.52.777 1.154 1.715 1.154 1.004 0 1.845-.601 1.845-2.047v-3.492h-.809v.309h-.032c-.195-.228-.567-.439-1.02-.439zm.065 3.151c-.583 0-1.084-.503-1.084-1.186 0-.698.501-1.201 1.084-1.201.582 0 1.035.503 1.035 1.201 0 .699-.453 1.186-1.035 1.186zm2.411-5.084h.858V56.6h-.858v-5.799zm3.156 1.933c-1.02 0-1.877.796-1.877 1.982 0 1.104.841 1.981 1.958 1.981.907 0 1.44-.552 1.651-.877l-.68-.455c-.226.325-.534.536-.97.536-.454 0-.762-.194-.956-.6l2.654-1.105-.097-.227c-.161-.407-.68-1.235-1.683-1.235zm-1.02 1.917a1.083 1.083 0 011.036-1.153c.34 0 .648.162.729.422l-1.765.73zm4.289 1.851l1.974-5.278h.76l1.975 5.278h-.745l-.501-1.429h-2.201l-.502 1.43h-.76zm1.488-2.063h1.748l-.858-2.37h-.032l-.858 2.37zm3.92 1.625a2.024 2.024 0 01-.502-1.364c0-.52.162-.975.502-1.365.34-.373.728-.552 1.213-.552.276 0 .502.065.712.163.227.113.389.26.502.455h.033l-.033-.504V51.24h.68v5.279h-.647v-.504h-.033c-.113.18-.29.325-.502.455a1.569 1.569 0 01-.712.163c-.485 0-.89-.195-1.213-.569zm2.12-.422c.226-.244.323-.552.323-.942 0-.374-.097-.699-.323-.926a1.02 1.02 0 00-.81-.357 1.02 1.02 0 00-.809.357c-.226.244-.323.552-.323.926 0 .373.097.698.323.926.227.243.502.357.81.357.34.032.598-.097.809-.341zm4.109.65c-.275.211-.615.325-1.035.325a1.622 1.622 0 01-1.538-1.04l.599-.26c.097.211.21.39.388.504a.966.966 0 00.55.178c.21 0 .389-.048.535-.13.145-.097.21-.21.21-.325 0-.227-.178-.405-.518-.503l-.615-.146c-.696-.179-1.052-.504-1.052-1.023 0-.325.13-.585.405-.796.275-.195.615-.293 1.02-.293.307 0 .598.081.873.228.26.146.437.357.535.617l-.6.26a.865.865 0 00-.323-.358c-.146-.097-.324-.13-.518-.13-.178 0-.324.05-.486.13-.129.098-.21.195-.21.325 0 .212.194.358.582.44l.535.129c.712.178 1.068.536 1.068 1.088.016.309-.146.569-.405.78z" fill="#757575"/><path d="M41.94 12.095c2.897 1.673 3.884 5.393 2.217 8.3l-12.72 22.123a6.044 6.044 0 01-8.271 2.225 6.094 6.094 0 01-2.217-8.3l12.72-22.123a6.048 6.048 0 018.271-2.225z" fill="#FFBF04"/><path d="M26.192 45.571c3.343 0 6.053-2.72 6.053-6.074 0-3.355-2.71-6.075-6.053-6.075s-6.053 2.72-6.053 6.075 2.71 6.074 6.053 6.074z" fill="#34A853"/><path d="M35.885 12.095c-2.897 1.673-3.885 5.393-2.218 8.3l12.721 22.123a6.044 6.044 0 008.27 2.225c2.898-1.673 3.885-5.393 2.218-8.3L44.155 14.32a6.044 6.044 0 00-8.27-2.225z" fill="#0086F9"/><path d="M76.995 3.146a2.133 2.133 0 00-2.13-2.138H3.135a2.134 2.134 0 00-2.131 2.138v57.891c0 .768.41 1.478 1.076 1.858l35.865 20.493a2.123 2.123 0 002.109 0l35.865-20.493a2.139 2.139 0 001.076-1.858V3.146z" stroke="url(#paint0_linear)" stroke-width="6"/><path d="M76.995 3.146a2.133 2.133 0 00-2.13-2.138H3.135a2.134 2.134 0 00-2.131 2.138v57.891c0 .768.41 1.478 1.076 1.858l35.865 20.493a2.123 2.123 0 002.109 0l35.865-20.493a2.139 2.139 0 001.076-1.858V3.146z" stroke="#649E32" stroke-width="6"/></g><defs><linearGradient id="paint0_linear" x1="39" y1="1.008" x2="39" y2="83.99" gradientUnits="userSpaceOnUse"><stop stop-color="#E2C136"/><stop offset=".51" stop-color="#FFF192"/><stop offset="1" stop-color="#CEA706"/></linearGradient><clipPath id="clip0"><path fill="#fff" d="M0 0h78v85H0z"/></clipPath></defs></svg>