<svg viewBox="0 0 78 85" fill="none" xmlns="http://www.w3.org/2000/svg"><g clip-path="url(#clip0)"><path d="M19.26 44.413l-2.815 6.341h-2.054l3.096-6.78c-1.464-.748-2.42-2.09-2.42-4.561 0-3.474 2.18-5.212 4.798-5.212h2.66v16.553h-1.787v-6.341H19.26zm1.478-8.7h-.943c-1.436 0-2.815.946-2.815 3.7 0 2.67 1.267 3.517 2.815 3.517h.943v-7.218z" fill="red"/><path d="M31.083 39.088v11.666H29.31v-5.226h-2.674v5.24H24.82v-11.68h1.802v4.957h2.674v-4.957h1.787zm9.246 13.968h-1.618v-2.288h-4.982v2.288H32.11v-3.771h.718c1.055-2.472 1.182-6.087 1.182-9.194v-1.003h5.404V49.27h.929v3.785h-.014zm-2.702-12.514h-2.013v.212c0 2.458-.112 6.045-1.083 8.517h3.096v-8.729zm7.67 10.381c-2.407 0-3.87-1.92-3.87-5.508 0-3.757 1.041-6.483 3.504-6.483 1.942 0 3.209 1.455 3.209 5.424v1.002h-4.842c0 2.642.732 4.026 2.168 4.026 1.013 0 1.83-.466 2.28-.791l.422 1.384c-.76.58-1.717.947-2.871.947zm-1.985-7.062h2.984c0-1.99-.324-3.446-1.365-3.446-1.112-.014-1.506 1.356-1.619 3.446zm8.459 1.088v5.819h-1.802v-11.68h1.801v5.395l2.787-5.395h1.83l-2.885 5.494 3.293 6.186h-1.956l-3.069-5.82zm5.263-.028c0-3.658 1.407-6.003 4.137-6.003 1.042 0 1.633.282 2.14.607l-.254 1.71c-.478-.424-1.182-.806-1.914-.806-1.294 0-2.21 1.455-2.21 4.407 0 2.924.69 4.59 2.14 4.59a2.93 2.93 0 001.956-.72l.422 1.342c-.619.536-1.365.875-2.42.875-2.491 0-3.997-2.02-3.997-6.002z" fill="#000"/><path d="M31.308 62.896h-3.744l-.112 1.285h-.366V62.53h.324c.168-.113.295-.297.408-.537.098-.24.183-.55.239-.932.056-.382.099-.833.127-1.356.028-.523.042-1.116.056-1.794h2.941v4.619h.605v1.652h-.366l-.112-1.285zm-.605-4.619h-2.069a47.973 47.973 0 01-.056 1.667c-.028.48-.07.89-.113 1.229-.056.339-.113.621-.211.847a1.265 1.265 0 01-.324.509h2.773v-4.252zm1.899 1.032h.436v3.008l2.181-3.008h.408v3.63h-.436v-3.037l-2.195 3.036h-.394v-3.63zm5.842 3.686c-.282 0-.535-.071-.76-.198a1.404 1.404 0 01-.521-.551v2.02h-.436v-4.958h.38l.042.706c.126-.24.31-.437.52-.579.226-.14.479-.211.789-.211.21 0 .422.042.619.113.197.084.366.197.52.353.155.155.268.353.352.593.085.24.127.508.127.819 0 .31-.042.58-.127.82-.084.24-.21.437-.352.592a1.424 1.424 0 01-.52.353 1.935 1.935 0 01-.633.128zm-.057-.325c.183 0 .338-.029.493-.1a.97.97 0 00.394-.282c.112-.127.197-.296.253-.494.056-.198.099-.423.099-.692 0-.254-.029-.48-.099-.678a1.643 1.643 0 00-.253-.494 1.16 1.16 0 00-.394-.297 1.183 1.183 0 00-.493-.099c-.169 0-.338.029-.492.1a1.013 1.013 0 00-.409.282 1.516 1.516 0 00-.281.494c-.07.198-.099.424-.099.692 0 .269.029.494.099.692.07.198.155.353.282.48.112.128.253.226.408.283.14.084.31.113.492.113zm5.277-.014a1.78 1.78 0 01-.492.254c-.197.071-.45.1-.732.1-.549 0-.971-.17-1.267-.495-.295-.325-.45-.79-.45-1.398 0-.297.042-.551.127-.791.084-.226.196-.438.351-.593a1.47 1.47 0 01.52-.368c.198-.084.409-.127.648-.127.24 0 .45.043.634.127.182.085.352.198.478.367.127.156.211.354.268.594.056.24.056.522 0 .833h-2.576c.014.495.127.862.338 1.116.21.254.535.381.957.381.225 0 .422-.028.591-.085a1.94 1.94 0 00.492-.226l.113.311zm-1.309-3.093c-.295 0-.548.113-.774.325-.225.212-.352.523-.394.946h2.14c.014-.212.014-.395-.043-.565a1.04 1.04 0 00-.197-.395.747.747 0 00-.324-.226.82.82 0 00-.408-.085zm2.702-.255v3.63h-.436v-3.63h.436zm1.76 3.616l-1.619-1.921 1.59-1.71h.48l-1.577 1.654 1.66 1.963h-.535v.014zm2.561-3.291v3.305h-.45v-3.305h-1.182v-.324h2.857v.325h-1.225z" fill="#404040"/><path d="M76.995 3.146a2.133 2.133 0 00-2.13-2.138H3.135a2.134 2.134 0 00-2.131 2.138v57.891c0 .768.41 1.478 1.076 1.858l35.865 20.493a2.123 2.123 0 002.109 0l35.865-20.493a2.139 2.139 0 001.076-1.858V3.146z" stroke="#649E32" stroke-width="6"/><path d="M28.959 9.813v20.35h4.224v-7.14h1.068v7.14h4.224v-7.14h1.156v1.784h4.224v-1.785h5.337V9.812H28.958z" fill="#FECE01"/><path d="M50.616 28.735h-4.224l-1.423-5.712h4.224l1.423 5.712z" fill="#F4B902"/><path d="M44.92 14.278H33.148v.762H44.92v-.762zm0 2.286H33.148v.763H44.92v-.763zm-4.557 2.288h-7.215v.762h7.215v-.762z" fill="#160F0F"/></g><defs><clipPath id="clip0"><path fill="#fff" d="M0 0h78v85H0z"/></clipPath></defs></svg>