<svg viewBox="0 0 78 85" fill="none" xmlns="http://www.w3.org/2000/svg"><g clip-path="url(#clip0)"><path d="M76.995 3.146a2.133 2.133 0 00-2.13-2.138H3.135a2.134 2.134 0 00-2.131 2.138v57.891c0 .768.41 1.478 1.076 1.858l35.865 20.493a2.123 2.123 0 002.109 0l35.865-20.493a2.139 2.139 0 001.076-1.858V3.146z" stroke="#649E32" stroke-width="6"/><g clip-path="url(#clip1)"><path d="M58.663 26.39c-.096-2.112-.43-3.553-.92-4.815a9.722 9.722 0 00-2.281-3.513 9.696 9.696 0 00-3.504-2.288c-1.259-.49-2.697-.825-4.802-.92-2.11-.098-2.784-.12-8.157-.12-5.372 0-6.046.022-8.156.119-2.106.096-3.543.431-4.802.922a9.693 9.693 0 00-3.504 2.287 9.723 9.723 0 00-2.282 3.513c-.489 1.262-.823 2.703-.919 4.814-.096 2.116-.12 2.791-.12 8.177 0 5.387.024 6.063.12 8.178.096 2.11.43 3.553.92 4.814a9.721 9.721 0 002.282 3.513 9.69 9.69 0 003.503 2.287c1.259.491 2.697.826 4.802.923 2.11.096 2.784.119 8.157.119 5.372 0 6.046-.023 8.156-.12 2.106-.096 3.543-.431 4.802-.922a10.127 10.127 0 005.785-5.8c.49-1.261.824-2.703.92-4.814.096-2.115.119-2.791.119-8.177 0-5.387-.023-6.062-.119-8.177zm-3.56 16.191c-.089 1.934-.411 2.984-.682 3.683a6.56 6.56 0 01-3.755 3.764c-.696.272-1.744.595-3.673.683-2.085.096-2.711.116-7.994.116-5.282 0-5.908-.02-7.994-.116-1.928-.088-2.976-.411-3.673-.683a6.127 6.127 0 01-2.274-1.484 6.145 6.145 0 01-1.48-2.28c-.271-.699-.594-1.749-.681-3.683-.096-2.09-.116-2.718-.116-8.014 0-5.296.02-5.923.116-8.015.088-1.933.41-2.983.68-3.682a6.151 6.151 0 011.48-2.281 6.124 6.124 0 012.275-1.483c.697-.272 1.745-.595 3.674-.684 2.085-.095 2.711-.115 7.993-.115s5.908.02 7.994.116c1.93.088 2.976.411 3.673.683.86.318 1.637.824 2.275 1.483a6.143 6.143 0 011.48 2.28c.27.7.593 1.75.681 3.683.095 2.092.115 2.719.115 8.015 0 5.296-.02 5.923-.115 8.014z" fill="url(#paint0_linear)"/><path d="M38.998 24.382c-5.61 0-10.158 4.56-10.158 10.185 0 5.624 4.548 10.184 10.158 10.184 5.61 0 10.159-4.56 10.159-10.184 0-5.625-4.548-10.185-10.159-10.185zm0 16.796c-3.641 0-6.594-2.96-6.593-6.612 0-3.65 2.952-6.61 6.594-6.61 3.642 0 6.594 2.96 6.594 6.61 0 3.652-2.953 6.612-6.595 6.612z" fill="url(#paint1_linear)"/><path d="M51.934 23.98a2.377 2.377 0 01-2.374 2.38 2.377 2.377 0 01-2.375-2.38 2.377 2.377 0 012.375-2.38 2.377 2.377 0 012.373 2.38z" fill="url(#paint2_linear)"/></g></g><defs><linearGradient id="paint0_linear" x1="22.537" y1="51.071" x2="55.546" y2="18.146" gradientUnits="userSpaceOnUse"><stop stop-color="#FFD600"/><stop offset=".5" stop-color="#FF0100"/><stop offset="1" stop-color="#D800B9"/></linearGradient><linearGradient id="paint1_linear" x1="31.815" y1="41.768" x2="46.218" y2="27.402" gradientUnits="userSpaceOnUse"><stop stop-color="#FF6400"/><stop offset=".5" stop-color="#FF0100"/><stop offset="1" stop-color="#FD0056"/></linearGradient><linearGradient id="paint2_linear" x1="47.881" y1="25.663" x2="51.247" y2="22.305" gradientUnits="userSpaceOnUse"><stop stop-color="#F30072"/><stop offset="1" stop-color="#E50097"/></linearGradient><clipPath id="clip0"><path fill="#fff" d="M0 0h78v85H0z"/></clipPath><clipPath id="clip1"><path fill="#fff" transform="translate(19.217 14.733)" d="M0 0h39.565v39.667H0z"/></clipPath></defs></svg>