<svg viewBox="0 0 60 60" fill="none" xmlns="http://www.w3.org/2000/svg"><path d="M29.974 0C13.406.014-.014 13.457 0 30.026.014 46.594 13.457 60.014 30.026 60 46.584 59.986 60 46.559 60 30 59.957 13.44 46.535.028 29.974 0zm0 57.416v.026C14.833 57.428 2.57 45.142 2.584 30c.014-15.142 12.3-27.404 27.442-27.39 15.121.014 27.376 12.269 27.39 27.39-.028 15.14-12.302 27.402-27.442 27.416z" fill="#649E32"/><path d="M31.292 40.62V26.408h-5.324v2.584h2.74V40.62h-2.74v2.584h8.038V40.62h-2.713zM29.87 16.823a2.222 2.222 0 00-2.17 2.221 2.248 2.248 0 002.273 2.222 2.222 2.222 0 10-.103-4.443z" fill="#649E32"/></svg>