<svg viewBox="0 0 60 60" fill="none" xmlns="http://www.w3.org/2000/svg"><g clip-path="url(#clip0)" fill="#649E32"><path d="M38.255 30.128l-3.921-1.525a.994.994 0 01-.638-.932v-1.956a5.563 5.563 0 001.879-4.17v-.369c.615-.869.94-1.87.94-2.918a5.112 5.112 0 00-5.107-5.106H28.59a5.112 5.112 0 00-5.106 5.106c0 1.047.324 2.05.94 2.918v.37c0 1.657.727 3.146 1.878 4.169v1.956c0 .415-.25.781-.637.932l-3.922 1.525a4.608 4.608 0 00-2.956 4.321v7.763a.879.879 0 001.758 0V34.45c0-1.196.72-2.25 1.835-2.683l2.687-1.045A5.602 5.602 0 0030 33.697a5.58 5.58 0 004.934-2.975l2.685 1.044a2.86 2.86 0 011.836 2.683v7.763a.879.879 0 001.757 0V34.45a4.608 4.608 0 00-2.956-4.321zm-12.074-8.582v-1.88a.879.879 0 00-.879-.878h-.015a3.216 3.216 0 01-.045-.53 3.352 3.352 0 013.348-3.349h2.819a3.352 3.352 0 013.348 3.349c0 .179-.016.356-.045.53h-.013c-.026 0-2.685-.036-6.185-1.786a.879.879 0 00-.786 1.572c2.685 1.343 4.919 1.771 6.09 1.908v1.064a3.822 3.822 0 01-3.819 3.818 3.822 3.822 0 01-3.818-3.818zM30 31.939a3.836 3.836 0 01-3.295-1.893 2.737 2.737 0 001.356-2.375v-.898a5.548 5.548 0 001.94.348 5.55 5.55 0 001.939-.348v.898c0 .995.52 1.886 1.356 2.375A3.82 3.82 0 0130 31.939z"/><path d="M23.424 35.697a.879.879 0 00-.88.879v8.454a.879.879 0 001.759 0v-8.454a.879.879 0 00-.88-.88zm13.152 0a.879.879 0 00-.879.879v8.454a.879.879 0 001.758 0v-8.454a.879.879 0 00-.879-.88zM30 0a4.642 4.642 0 00-4.637 4.636A4.642 4.642 0 0030 9.273a4.642 4.642 0 004.636-4.636A4.642 4.642 0 0030 0zm0 7.515a2.882 2.882 0 01-2.879-2.878A2.882 2.882 0 0130 1.757a2.882 2.882 0 012.878 2.88A2.882 2.882 0 0130 7.514zm0 43.212a4.642 4.642 0 00-4.637 4.637A4.642 4.642 0 0030 60a4.642 4.642 0 004.636-4.636A4.642 4.642 0 0030 50.727zm0 7.515a2.882 2.882 0 01-2.879-2.878A2.882 2.882 0 0130 52.485a2.882 2.882 0 012.878 2.879A2.882 2.882 0 0130 58.242zm25.365-32.879A4.642 4.642 0 0050.728 30a4.642 4.642 0 004.637 4.636A4.642 4.642 0 0060 30a4.642 4.642 0 00-4.636-4.637zm0 7.516a2.882 2.882 0 01-2.879-2.88 2.882 2.882 0 012.879-2.878A2.882 2.882 0 0158.243 30a2.882 2.882 0 01-2.878 2.879zM4.637 25.363A4.642 4.642 0 000 30a4.642 4.642 0 004.636 4.636A4.642 4.642 0 009.273 30a4.642 4.642 0 00-4.636-4.637zm0 7.516a2.882 2.882 0 01-2.88-2.88 2.882 2.882 0 012.88-2.878A2.882 2.882 0 017.514 30a2.882 2.882 0 01-2.879 2.879zm50.434-10.654A26.223 26.223 0 0037.776 4.929a.879.879 0 10-.52 1.68 24.465 24.465 0 0116.136 16.136.88.88 0 001.68-.52zM23.325 5.509a.88.88 0 00-1.1-.58A26.223 26.223 0 004.93 22.226a.879.879 0 101.68.52A24.465 24.465 0 0122.745 6.609a.879.879 0 00.58-1.1zm-.579 47.882A24.466 24.466 0 016.609 37.255a.879.879 0 00-1.679.52 26.223 26.223 0 0017.296 17.296.88.88 0 10.52-1.68zm31.746-16.715a.879.879 0 00-1.1.579 24.465 24.465 0 01-16.136 16.136.879.879 0 00.52 1.68 26.223 26.223 0 0017.295-17.296.879.879 0 00-.58-1.1z"/></g><defs><clipPath id="clip0"><path fill="#fff" d="M0 0h60v60H0z"/></clipPath></defs></svg>