<svg viewBox="0 0 60 60" fill="none" xmlns="http://www.w3.org/2000/svg"><path d="M60 53.369a1.406 1.406 0 01-1.406 1.406H1.406a1.406 1.406 0 010-2.812h3.205V40.522a1.406 1.406 0 112.812 0v11.44H20.6V27.219a1.406 1.406 0 012.813 0v24.745h13.176V33.87a1.406 1.406 0 012.813 0v18.093h13.176V20.567a1.406 1.406 0 112.812 0v31.396h3.205A1.406 1.406 0 0160 53.369zm-6.017-38.156a1.406 1.406 0 001.406-1.406V6.63a1.406 1.406 0 00-1.406-1.406h-7.175a1.406 1.406 0 100 2.812h4.182L37.644 24.13l-14.977-7.98a1.406 1.406 0 00-1.687.278L4.991 33.467a1.406 1.406 0 102.052 1.924l15.252-16.254 15.038 8.013a1.407 1.407 0 001.744-.343l13.5-16.278v3.277a1.406 1.406 0 001.406 1.406z" fill="#649E32"/></svg>