<svg viewBox="0 0 60 60" fill="none" xmlns="http://www.w3.org/2000/svg"><g clip-path="url(#clip0)"><path d="M25.833 52.65L6.648 39.116H3.417A3.42 3.42 0 010 35.7V17.91a3.42 3.42 0 013.417-3.417H6.58l6.977-6.343a5.88 5.88 0 013.963-1.532h4.02a1 1 0 010 2h-4.02c-.97 0-1.9.36-2.618 1.012-7.848 7.135-7.394 6.863-7.936 6.863h-3.55c-.782 0-1.417.635-1.417 1.417V35.7c0 .781.635 1.417 1.417 1.417 3.836 0 3.779-.061 4.124.183.103.072 19.478 13.74 19.583 13.81 1.547 1.013 3.175-1.216 1.739-2.412l-8.788-7.312a1 1 0 011.28-1.538l8.787 7.313c3.35 2.788-.483 8.184-4.309 5.488zm10.22-8.584L25.462 35.67a1 1 0 00-1.242 1.568l10.593 8.395a2.065 2.065 0 01-.201 3.38 1 1 0 001.048 1.703c2.401-1.477 2.604-4.899.395-6.65zm5.806-3.73l-11.372-9.645a1 1 0 00-1.294 1.526l11.373 9.645a2.264 2.264 0 01-.278 3.657c-.86.529-.476 1.852.525 1.852.74 0 2.383-1.38 2.54-3.458a4.222 4.222 0 00-1.494-3.577zm14.724-25.97h-3.249l-6.84-6.217a5.879 5.879 0 00-3.962-1.532H31.955c-1.53 0-2.967.595-4.048 1.677l-7.988 7.987c-2.205 2.205-2.365 5.75-.366 8.071a5.904 5.904 0 007.395 1.272l7.48-4.284L46.73 38.892a2.18 2.18 0 01-.643 3.11 1 1 0 00-.327 1.376c1.153 1.874 4.977-2.255 2.608-5.634L35.541 19.445a1 1 0 00-1.315-.294l-8.272 4.737a3.902 3.902 0 01-4.885-.84c-1.32-1.533-1.204-3.884.264-5.352l7.988-7.988a3.7 3.7 0 012.634-1.091h10.577c.97 0 1.9.36 2.617 1.012l7.126 6.478c.381.346.388.26 4.308.26.782 0 1.417.635 1.417 1.417v20.791c0 .781-.636 1.417-1.417 1.417a1 1 0 00-1 1c0 2.005 4.417.898 4.417-2.417V17.784a3.42 3.42 0 00-3.417-3.417zm-11.265 7.395a6.675 6.675 0 01-2.426 1.442c-1.24.413-.64 2.32.632 1.897a8.684 8.684 0 003.158-1.877 1 1 0 00-1.364-1.462z" fill="#649E32"/></g><defs><clipPath id="clip0"><path fill="#fff" d="M0 0h60v60H0z"/></clipPath></defs></svg>