<svg viewBox="0 0 60 60" fill="none" xmlns="http://www.w3.org/2000/svg"><g clip-path="url(#clip0)" fill="#649E32"><path d="M27.324 15.898H13.262a.879.879 0 100 1.758h14.062a.879.879 0 100-1.758z"/><path d="M16.94 38.523a18.364 18.364 0 01-5.744-2.078.88.88 0 00-1.03.12 8.468 8.468 0 01-5.771 2.263c-.396 0-.787-.027-1.174-.08a10.285 10.285 0 003.756-4.847.879.879 0 00-.184-.909 18.463 18.463 0 01-5.035-12.699c0-10.22 8.315-18.535 18.535-18.535 8.957 0 16.625 6.385 18.232 15.181a.88.88 0 001.729-.316C38.494 6.991 30.099 0 20.293 0 9.103 0 0 9.103 0 20.293a20.21 20.21 0 005.13 13.485A8.523 8.523 0 01.549 38.21a.88.88 0 000 1.63c1.223.495 2.517.746 3.846.746 2.378 0 4.657-.817 6.485-2.312a20.115 20.115 0 005.744 1.978.88.88 0 00.315-1.73z"/><path d="M13.262 22.93a.879.879 0 100 1.758H23.2a.879.879 0 100-1.758h-9.94zm14.941-2.637a.879.879 0 00-.879-.879H13.262a.879.879 0 100 1.758h14.062a.879.879 0 00.88-.879zm18.535 18.535H32.676a.879.879 0 100 1.758h14.062a.879.879 0 100-1.758zm0 3.516H32.676a.879.879 0 100 1.758h14.062a.879.879 0 100-1.758zm0-7.031H32.676a.879.879 0 100 1.757h14.062a.879.879 0 100-1.758z"/><path d="M59.45 57.624a8.525 8.525 0 01-4.58-4.432A20.21 20.21 0 0060 39.707c0-11.19-9.103-20.293-20.293-20.293s-20.293 9.103-20.293 20.293S28.517 60 39.707 60a20.32 20.32 0 009.413-2.312A10.217 10.217 0 0055.605 60a10.2 10.2 0 003.846-.746.879.879 0 000-1.63zm-3.845.618a8.469 8.469 0 01-5.772-2.263.879.879 0 00-1.03-.12 18.54 18.54 0 01-9.096 2.383c-10.22 0-18.535-8.315-18.535-18.535s8.315-18.535 18.535-18.535 18.535 8.315 18.535 18.535c0 4.739-1.788 9.249-5.035 12.7a.879.879 0 00-.184.908 10.286 10.286 0 003.756 4.847c-.387.053-.778.08-1.174.08z"/></g><defs><clipPath id="clip0"><path fill="#fff" d="M0 0h60v60H0z"/></clipPath></defs></svg>