<svg viewBox="0 0 60 60" fill="none" xmlns="http://www.w3.org/2000/svg"><g clip-path="url(#clip0)"><path d="M51.43.765H8.57C3.845.765 0 4.61 0 9.335v26.533c0 4.725 3.845 8.57 8.57 8.57h6.227v13.625a1.172 1.172 0 001.988.84L31.67 44.438h19.76c4.725 0 8.57-3.845 8.57-8.57V9.336c0-4.726-3.845-8.57-8.57-8.57zm6.226 35.103a6.233 6.233 0 01-6.226 6.226H31.194c-.305 0-.598.12-.816.332L17.14 55.29V43.266c0-.647-.524-1.172-1.171-1.172H8.57a6.234 6.234 0 01-6.226-6.226V9.336A6.233 6.233 0 018.57 3.109h42.86a6.233 6.233 0 016.226 6.227v26.532z" fill="#649E32"/></g><defs><clipPath id="clip0"><path fill="#fff" d="M0 0h60v60H0z"/></clipPath></defs></svg>