<svg viewBox="0 0 60 60" fill="none" xmlns="http://www.w3.org/2000/svg"><path d="M44.375 2.5C37.72 2.5 32.223 8.682 30 11.6c-2.223-2.918-7.72-9.1-14.375-9.1C7.009 2.5 0 10.421 0 20.156c0 5.312 2.108 10.262 5.798 13.649.054.093.12.178.197.255l23.122 23.075a1.247 1.247 0 001.767-.001L54.775 33.25l.247-.24c.195-.184.388-.37.604-.61.09-.089.165-.189.222-.298C58.528 28.823 60 24.59 60 20.156 60 10.421 52.99 2.5 44.375 2.5zm9.393 28.197c-.034.04-.066.083-.094.127-.117.134-.245.253-.372.374L29.999 54.484 8.047 32.576c-.07-.14-.17-.266-.29-.373C4.414 29.286 2.5 24.895 2.5 20.156 2.5 11.8 8.387 5 15.625 5c7.156 0 13.263 9.334 13.324 9.428.461.712 1.64.712 2.102 0C31.112 14.334 37.22 5 44.375 5 51.612 5 57.5 11.8 57.5 20.156c0 3.938-1.326 7.682-3.732 10.541z" fill="#649E32"/></svg>