<svg viewBox="0 0 60 60" fill="none" xmlns="http://www.w3.org/2000/svg"><path d="M46.875 34.175A19.823 19.823 0 0050 23.487c0-11.025-8.975-20-20-20s-20 8.975-20 20c0 3.938 1.163 7.6 3.125 10.688l-9.262 10.15c-.288.325-.4.775-.275 1.187.125.413.45.738.862.863l7.463 2.1 2.787 7.237c.163.4.513.7.938.775.075.013.15.025.225.025.35 0 .687-.15.925-.412l11.6-12.713c.537.038 1.075.088 1.612.088.538 0 1.075-.038 1.613-.088l11.6 12.713c.237.262.575.412.925.412.075 0 .15-.012.225-.025.425-.075.775-.375.937-.775l2.788-7.237 7.462-2.1c.413-.113.738-.45.863-.863a1.286 1.286 0 00-.275-1.187l-9.263-10.15zM16.3 52.937L14.013 47a1.237 1.237 0 00-.825-.75l-6.113-1.725 7.55-8.275a20.06 20.06 0 0010.813 6.687l-9.138 10zM30 40.987c-9.65 0-17.5-7.85-17.5-17.5s7.85-17.5 17.5-17.5 17.5 7.85 17.5 17.5-7.85 17.5-17.5 17.5zm16.813 5.25a1.267 1.267 0 00-.825.75L43.7 52.925l-9.125-10a20.06 20.06 0 0010.813-6.688l7.537 8.263-6.112 1.737z" fill="#649E32"/><path d="M42.25 16.75a1.254 1.254 0 00-1.75-.25L26.475 27.025l-4.238-5.3a1.264 1.264 0 00-1.762-.2 1.264 1.264 0 00-.2 1.762l5 6.25c.25.3.612.463.975.463.262 0 .525-.088.75-.25L42 18.5c.55-.413.662-1.2.25-1.75z" fill="#649E32"/></svg>