<svg viewBox="0 0 60 60" fill="none" xmlns="http://www.w3.org/2000/svg"><g clip-path="url(#clip0)" fill="#649E32"><path d="M30 60a30 30 0 1130-30 30.034 30.034 0 01-30 30zm0-57.656A27.656 27.656 0 1057.656 30 27.688 27.688 0 0030 2.344z"/><path d="M30 9.33a1.172 1.172 0 01-1.172-1.172v-2.88a1.172 1.172 0 012.344 0v2.88A1.172 1.172 0 0130 9.33zM8.16 31.172H5.28a1.172 1.172 0 010-2.344h2.88a1.172 1.172 0 010 2.344zM30 55.893a1.171 1.171 0 01-1.172-1.171v-2.88a1.172 1.172 0 012.344 0v2.88A1.172 1.172 0 0130 55.893zm24.722-24.721h-2.88a1.172 1.172 0 110-2.344h2.88a1.172 1.172 0 110 2.344zm-17.81 3.992a1.17 1.17 0 01-.586-.158l-6.914-3.991A1.172 1.172 0 0128.828 30V13.503a1.172 1.172 0 112.344 0v15.82l6.328 3.654a1.172 1.172 0 01-.586 2.187h-.002z"/></g><defs><clipPath id="clip0"><path fill="#fff" d="M0 0h60v60H0z"/></clipPath></defs></svg>