<svg xmlns="http://www.w3.org/2000/svg" viewBox="0 0 125.2 26.9"><style>.st1{fill:#231f20}</style><path d="M-4.5 5.4h-.9c-1.4 0-2.7 1-2.7 3.5 0 2.6 1.2 3.7 2.5 3.7h1.1V5.4zm1.4 8.5h-2.4c-2.3 0-4.3-1.8-4.3-5.2 0-2.1 1-3.6 2.7-4.3l-3.2-5.7c-.1-.2 0-.3.2-.3h1.5c.1 0 .2 0 .2.1l2.9 5.6h1v-5.6c0-.1.1-.1.1-.1H-3c.1 0 .2.1.2.2v15.2c-.1 0-.1.1-.3.1" transform="matrix(1.25 0 0 -1.25 12.883 18.639)" fill="#ed1e24"/><path class="st1" d="M-11.4 2.9h-1.3c-.1 0-.2-.1-.2-.1v-4h-2.4v4c0 .1 0 .1-.1.1h-1.3c-.1 0-.2-.1-.2-.1V-7.3c0-.1 0-.2.1-.2h1.3c.1 0 .1.1.1.2v4.8h2.4v-4.8c0-.1.1-.2.2-.2h1.3c.1 0 .1.1.1.2v10c.1.1 0 .2 0 .2" transform="matrix(1.25 0 0 -1.25 33.07 11.357)"/><path class="st1" d="M-33.8 10.3l-.2.7c0 .1 0 .1-.1.1s-.7-.2-1.5-.2c-1.6 0-2.3 1.5-2.3 3.9 0 2.1.6 4.2 1.7 4.2.3 0 .6-.1 1.2-.6.1-.1.1-.1.2-.1s.1 0 .2.1l.6.9c0 .1.1.1.1.2s-.1.1-.2.2c-.9.4-1.4.5-1.9.5-2 0-3.5-2.3-3.5-6 0-3.1 1.5-4.9 3.5-4.9.9 0 1.8.4 2.2.7v.3" transform="matrix(1.25 0 0 -1.25 97.739 32.782)"/><path class="st1" d="M-26.9 6.5l2.5 4.5c0 .1 0 .1-.1.1h-1.2c-.4 0-.5-.1-.6-.4l-1.9-3.9c-.1-.2-.2-.4-.3-.4V11c0 .1 0 .1-.1.1H-30c-.1 0-.1-.1-.1-.1V.9c0-.1 0-.1.1-.1h1.3c.1 0 .1.1.1.1v5.2c.1 0 .1-.1.1-.2l2.4-4.9c.1-.2.3-.3.6-.3h1.3c.1 0 .1.1.1.1l-2.8 5.7" transform="matrix(1.25 0 0 -1.25 77.884 21.681)"/><path class="st1" d="M-16.2 9.8h-3c1.1 1.8 1.5 3.8 1.6 6.3 0 .5.1 1.1.1 1.5h1.3V9.8zm2.3 0h-.2c-.3 0-.4.1-.4.4v8.6c0 .1 0 .1-.1.1h-4.1c-.1 0-.2-.1-.2-.1V18c0-2.5-.1-5.7-1.5-8.2h-.5c-.1 0-.2-.1-.2-.2v-3c0-.1.1-.1.1-.1h1c.2 0 .3.2.3.3v1.7h4.4V6.6c0-.1.1-.1.1-.1h1.1c.1 0 .2.1.2.3v2.9c.1 0 .1.1 0 .1" transform="matrix(1.25 0 0 -1.25 46.774 31.366)"/><path class="st1" d="M-20.9 6.1c-.5 0-1.2-.1-1.2-.1v.6c.2 1.8.6 2.7 1.3 2.7.7 0 1.1-.9 1.2-2.5v-.7h-1.3zm.2 4.5c-2.2 0-3.2-2.8-3.2-5.9 0-3.1 1.4-5 3.5-5 1 0 1.9.4 2.4.7.1 0 .1.1.1.2l-.2.7c0 .1-.1.1-.2.1s-.7-.2-1.5-.2c-1.6 0-2.3 1.4-2.3 3.2v.5s.8-.1 1.3-.1h3v.9c-.1 3.2-1.2 4.9-2.9 4.9" transform="matrix(1.25 0 0 -1.25 60.524 20.722)"/><path d="M117.4 26.9H62.7V0h54.7l7.7 13.5-7.7 13.4zm-52.7-2h51.6l6.6-11.5L116.3 2H64.7v22.9z" fill="#f9cc28"/><path d="M71.2 16.2h1.1c.3-.5.5-1.1.7-1.9.2-.8.3-1.4.4-2 .1-.7.2-1.3.2-1.9V8.2h4.8v8h1.1v3.2h-1.3v-2.1h-5.8v2.1h-1.3v-3.2zm6-6.9h-2.3c0 .7 0 1.5-.1 2.3-.1.9-.2 1.7-.4 2.6-.2.8-.4 1.5-.7 2h3.6V9.3zm4.7 5.7l2.8-2.9v-1h1.1v6.1h-1.1v-3.8l-2.8 2.9v.9h-1.1v-6.1h1.1V15zm7 1.6v3.2h-1.1v-8.6h1.1v.9c.2-.4.6-.7.9-.8.4-.1.7-.2 1-.2.6 0 1.1.1 1.5.4.4.3.8.7 1 1.1.2.5.3 1 .3 1.6 0 .6-.1 1.1-.3 1.6-.2.5-.5.9-.9 1.2-.4.3-.9.5-1.5.5-.9-.1-1.5-.3-2-.9zm0-2.3c0 .4.1.7.2 1s.3.6.6.8.6.3 1.1.3c.3 0 .6-.1.9-.3.2-.2.4-.5.6-.8.1-.3.2-.7.2-1.1 0-.5-.1-.8-.2-1.2-.2-.3-.4-.6-.6-.7-.3-.2-.5-.2-.8-.2-.4 0-.7.1-1 .3-.3.2-.5.4-.6.8-.4.3-.4.7-.4 1.1zm10.5 1.3l.7.7c-.3.4-.7.7-1.1.9-.4.2-.9.3-1.4.3-.6 0-1.1-.1-1.5-.4s-.8-.6-1.1-1.1c-.3-.5-.4-1-.4-1.6 0-.6.1-1.1.3-1.6.2-.5.6-.9 1-1.2.4-.3.9-.5 1.5-.5.5 0 .9.1 1.3.3.4.2.6.5.8.8s.4.7.5 1.1c.1.4.1.8.1 1.2h-4.3c0 .6.2 1 .5 1.4.3.4.8.6 1.3.6.4 0 .7-.1.9-.2.3-.1.6-.4.9-.7zm-3.6-2.1h3c0-.4-.2-.7-.4-1-.2-.3-.6-.5-1.1-.5-.5 0-.9.2-1.1.5s-.3.6-.4 1zm5.8-2.3h1.1v2.3c.4 0 .6 0 .8-.1.2-.1.3-.2.5-.3s.3-.4.5-.7c.2-.4.4-.7.6-.8.1-.2.3-.3.5-.4.2-.1.5-.1.8-.1v.9c-.3.1-.5.1-.6.2-.1.1-.2.3-.4.6-.2.4-.4.7-.6.9-.2.2-.4.3-.6.3v.1c.3.1.5.2.7.4.2.2.3.5.5.8.2.3.3.5.4.7s.2.3.4.3c.1.1.3.1.6.1v1h-.4c-.5 0-.8-.1-1-.3s-.5-.6-.8-1.1c-.3-.6-.6-1-.7-1.2s-.4-.3-.6-.3h-.5v2.8h-1.1v-6.1zm7.7 6.1v-5.1h-1.8v-.9h4.7v.9h-1.8v5.1h-1.1z"/></svg>