<?xml version="1.0" standalone="no"?>
<!DOCTYPE svg PUBLIC "-//W3C//DTD SVG 20010904//EN"
 "http://www.w3.org/TR/2001/REC-SVG-20010904/DTD/svg10.dtd">
<svg version="1.0" xmlns="http://www.w3.org/2000/svg"
 width="960.000000pt" height="960.000000pt" viewBox="0 0 960.000000 960.000000"
 preserveAspectRatio="xMidYMid meet">
<metadata>
Created by potrace 1.11, written by Peter Selinger 2001-2013
</metadata>
<g transform="translate(0.000000,960.000000) scale(0.100000,-0.100000)"
fill="#000000" stroke="none">
<path d="M5028 9578 c5 -7 27 -44 47 -83 42 -80 109 -204 138 -255 11 -19 38
-69 60 -110 56 -107 104 -195 149 -273 21 -38 38 -72 38 -77 0 -4 9 -19 21
-34 11 -14 17 -26 12 -26 -4 0 -3 -4 2 -8 18 -13 37 -54 28 -62 -9 -10 -190
-107 -283 -153 -36 -17 -67 -34 -70 -38 -3 -3 -59 -34 -125 -69 -66 -34 -142
-75 -170 -90 -27 -15 -84 -45 -125 -67 -167 -89 -214 -115 -236 -130 -13 -8
-24 -11 -24 -7 0 5 -4 4 -8 -1 -4 -6 -20 -17 -37 -25 -16 -8 -32 -17 -35 -20
-3 -3 -30 -18 -60 -32 -30 -15 -89 -46 -130 -69 -117 -63 -212 -115 -297 -160
-43 -23 -118 -64 -168 -91 -49 -27 -112 -60 -140 -74 -27 -13 -63 -33 -80 -43
-16 -9 -59 -33 -95 -51 -36 -19 -73 -40 -82 -48 -10 -9 -18 -12 -18 -7 0 4 -6
3 -12 -3 -7 -5 -42 -25 -78 -44 -36 -19 -101 -54 -145 -78 -44 -24 -107 -57
-140 -75 -178 -96 -493 -265 -585 -313 -58 -31 -107 -58 -110 -61 -7 -8 -93
-48 -104 -49 -5 0 -12 -4 -15 -9 -8 -11 -30 -24 -121 -70 -41 -21 -77 -40 -80
-43 -3 -3 -39 -23 -80 -44 -41 -21 -97 -51 -125 -66 -27 -15 -75 -40 -105 -56
-30 -16 -58 -33 -62 -39 -4 -5 -8 -6 -8 -1 0 5 -6 4 -12 -2 -7 -5 -47 -28 -88
-50 -41 -21 -109 -58 -150 -81 -41 -22 -100 -53 -130 -68 -30 -15 -57 -30 -60
-33 -3 -3 -43 -25 -90 -49 -47 -24 -107 -56 -135 -72 -27 -15 -65 -35 -83 -45
l-32 -16 46 -87 c26 -47 61 -113 79 -146 18 -33 46 -85 62 -115 16 -30 51 -95
78 -145 26 -49 59 -110 73 -135 13 -25 41 -76 62 -115 21 -38 53 -99 72 -135
20 -36 50 -92 67 -125 18 -33 36 -64 42 -69 5 -6 9 -18 9 -27 0 -10 4 -19 8
-21 4 -1 25 -37 46 -78 21 -41 42 -80 47 -85 4 -6 28 -49 52 -95 24 -47 75
-143 112 -215 37 -71 82 -157 99 -190 17 -33 35 -63 39 -66 4 -3 17 -23 28
-45 12 -21 36 -66 54 -99 18 -33 54 -100 81 -150 26 -49 58 -108 70 -130 12
-22 35 -65 51 -95 57 -108 136 -256 153 -285 9 -16 39 -70 65 -120 27 -49 62
-115 78 -145 41 -76 103 -192 148 -275 21 -38 42 -71 48 -73 12 -4 132 57 143
73 4 5 8 6 8 1 0 -5 9 -1 20 9 11 10 20 14 20 9 0 -5 4 -4 8 1 4 6 34 24 67
41 63 33 206 109 240 128 11 6 23 15 26 19 3 5 10 9 15 9 13 1 38 11 44 17 3
3 37 22 75 41 39 19 72 37 75 40 3 3 46 26 95 52 145 74 160 83 163 91 2 4 12
7 22 7 10 0 20 3 22 8 2 4 30 21 63 38 33 17 94 50 135 73 41 23 92 48 113 57
20 9 37 20 37 25 0 5 7 9 15 9 9 0 32 10 53 23 20 12 51 29 67 37 17 8 32 17
35 20 3 3 46 26 96 52 l92 48 54 -108 c31 -59 65 -124 77 -144 11 -21 17 -38
13 -38 -4 0 -2 -4 3 -8 19 -14 57 -94 49 -102 -5 -5 -54 -32 -109 -61 -55 -29
-103 -56 -106 -62 -3 -5 -8 -7 -10 -6 -4 4 -80 -35 -404 -210 -44 -24 -111
-59 -150 -79 -38 -21 -72 -39 -75 -42 -3 -3 -30 -17 -60 -33 -30 -15 -89 -46
-130 -68 -41 -23 -113 -61 -160 -86 -47 -24 -92 -48 -100 -53 -16 -10 -167
-91 -330 -177 -238 -126 -276 -146 -285 -153 -5 -4 -77 -42 -160 -85 -82 -43
-152 -81 -155 -84 -3 -3 -34 -20 -70 -38 -36 -18 -108 -55 -160 -84 -52 -28
-122 -65 -155 -83 -33 -17 -63 -35 -67 -41 -4 -5 -8 -6 -8 -1 0 5 -6 4 -13 -2
-7 -6 -46 -28 -87 -49 -90 -47 -183 -98 -226 -124 -17 -10 -34 -16 -37 -12 -4
3 -7 1 -7 -5 0 -7 -5 -12 -10 -12 -6 0 -28 -11 -50 -25 -22 -14 -46 -25 -55
-25 -8 0 -15 -4 -15 -9 0 -5 -10 -13 -22 -17 -13 -4 -40 -18 -60 -31 -21 -13
-38 -20 -38 -16 0 5 -4 3 -8 -2 -4 -6 -36 -26 -72 -44 -128 -67 -175 -93 -182
-100 -8 -7 7 -39 102 -216 54 -103 110 -208 200 -380 35 -66 81 -154 103 -195
38 -72 64 -120 185 -350 51 -99 133 -253 154 -293 8 -16 16 -14 86 24 42 23
120 64 172 92 52 28 98 56 102 61 4 6 8 7 8 3 0 -9 61 23 72 38 4 6 8 6 8 1 0
-5 6 -4 13 2 6 5 48 29 92 52 44 23 112 59 150 80 39 21 106 57 150 80 97 51
209 111 290 155 33 18 101 54 150 80 50 26 95 52 101 56 6 5 14 6 17 2 4 -3 7
-1 7 5 0 7 7 12 15 12 8 0 15 5 15 10 0 6 8 10 18 10 10 0 22 4 27 9 6 5 44
27 85 49 41 21 143 76 227 121 84 44 154 81 157 81 3 0 22 11 42 25 20 14 40
23 44 20 5 -3 10 -1 12 3 1 5 53 35 113 67 61 33 146 78 190 102 44 23 114 60
155 80 41 21 77 41 80 44 3 3 68 38 145 78 77 41 154 81 170 91 17 9 75 41
130 70 55 29 133 70 173 92 39 21 107 56 150 79 42 22 81 45 87 50 5 5 17 9
27 9 10 0 18 4 18 9 0 5 17 16 38 25 48 20 143 72 160 86 6 6 12 8 12 4 0 -3
6 -2 13 5 8 6 49 29 93 52 43 23 108 57 144 76 36 20 117 63 180 96 63 33 125
66 136 73 12 7 71 39 130 70 60 31 132 69 159 84 28 15 86 47 130 70 44 23
109 58 145 77 36 19 71 40 78 45 6 6 12 7 12 2 0 -5 4 -4 8 1 4 6 25 19 47 30
22 10 48 26 59 35 10 8 20 14 22 12 3 -2 27 9 54 24 32 18 47 31 41 38 -4 6
-30 52 -56 101 -46 86 -86 161 -145 270 -15 28 -53 100 -85 160 -32 61 -65
118 -73 128 -8 9 -12 17 -7 17 4 0 3 6 -3 13 -10 12 -42 70 -102 187 -19 36
-42 77 -53 93 -10 15 -15 27 -10 27 4 0 3 4 -3 8 -6 4 -37 57 -69 117 -32 61
-76 144 -99 185 -52 95 -125 235 -170 325 -20 39 -56 108 -82 155 -25 47 -67
126 -93 175 -27 50 -62 115 -78 145 -16 30 -54 100 -83 155 -29 55 -56 105
-60 110 -4 6 -36 64 -70 130 -73 140 -83 158 -90 165 -3 3 -19 32 -35 65 -44
87 -109 209 -115 215 -3 3 -15 25 -27 50 -13 25 -45 86 -73 135 -27 50 -54
100 -59 112 -15 32 -28 36 -63 16 -18 -10 -35 -20 -38 -23 -3 -3 -32 -19 -65
-35 -33 -16 -97 -51 -142 -77 -46 -26 -83 -45 -83 -43 0 2 -27 -11 -59 -30
-33 -19 -64 -35 -69 -35 -6 0 -12 -3 -14 -7 -1 -5 -34 -24 -73 -43 -38 -19
-72 -37 -75 -40 -3 -3 -45 -26 -95 -52 -49 -26 -110 -58 -135 -71 -25 -14 -74
-40 -110 -58 -36 -19 -68 -37 -71 -42 -3 -5 -12 -9 -20 -10 -8 -2 -37 -16 -64
-32 -28 -16 -52 -30 -55 -30 -5 -1 -24 -11 -90 -48 -19 -11 -62 -33 -95 -50
-33 -17 -62 -33 -65 -36 -3 -3 -34 -21 -70 -39 -36 -18 -101 -52 -146 -76
l-81 -44 -53 101 c-104 203 -140 275 -140 284 0 5 35 27 78 49 42 21 79 41 82
44 3 3 34 21 70 40 36 19 88 46 115 61 28 15 70 38 95 51 131 69 175 93 180
98 3 3 32 18 65 35 33 16 89 46 125 66 36 20 115 62 175 94 61 33 137 74 170
93 33 18 77 40 98 49 20 9 37 20 37 25 0 4 9 8 19 8 11 0 21 4 23 9 2 5 41 28
88 51 47 23 87 45 90 49 3 3 34 21 70 39 129 65 225 117 230 122 3 4 20 12 38
19 17 8 32 18 32 24 0 6 3 7 6 4 4 -4 20 3 35 14 16 11 29 18 29 15 0 -4 17 4
38 17 20 13 80 46 132 73 52 27 97 51 100 54 3 3 23 14 45 25 22 11 48 26 58
34 9 8 17 11 17 7 0 -4 12 1 28 11 15 11 61 37 102 58 41 21 77 41 80 45 5 6
45 23 45 19 0 -1 19 10 42 24 24 15 47 27 52 27 5 0 11 3 13 8 2 4 48 30 103
57 55 28 102 53 105 56 16 18 263 140 270 132 4 -4 24 -37 43 -73 67 -128 131
-245 148 -275 10 -16 28 -50 40 -75 13 -25 39 -74 59 -110 21 -36 56 -101 80
-145 24 -44 52 -96 63 -115 11 -19 31 -57 44 -84 l24 -48 24 33 c14 18 27 41
31 51 3 10 10 18 15 18 5 0 9 5 9 11 0 6 14 30 30 54 17 24 30 48 30 54 0 6 5
11 10 11 6 0 10 6 10 13 0 8 9 22 20 32 11 10 20 22 20 27 0 5 32 59 70 119
39 61 70 113 70 115 0 3 5 10 10 17 6 7 110 172 231 367 122 195 231 371 244
390 48 74 95 151 95 156 0 2 5 10 10 17 6 7 25 35 42 62 17 28 41 66 53 85 83
130 101 159 118 189 10 18 22 38 28 45 19 22 329 519 329 526 0 5 4 10 8 12 4
2 32 44 62 93 30 50 59 95 63 100 4 6 36 55 69 110 34 55 66 102 70 103 4 2 8
8 8 13 0 5 51 90 114 189 87 136 111 180 98 181 -24 3 -112 6 -317 13 -99 4
-236 9 -305 11 -69 3 -199 7 -290 10 -91 3 -228 8 -305 10 -77 3 -214 7 -305
10 -188 6 -375 13 -570 21 -74 2 -144 4 -155 4 -11 -1 -24 -1 -30 -1 -5 0 -68
3 -140 5 -239 10 -550 20 -882 30 -72 2 -136 7 -142 10 -5 4 -12 2 -16 -4 -4
-6 -10 -8 -15 -5 -5 3 -75 8 -156 11 -120 4 -145 2 -136 -8z"/>
</g>
</svg>
